%TF.GenerationSoftware,KiCad,Pcbnew,(7.0.0)*%
%TF.CreationDate,2023-02-28T10:18:03+09:00*%
%TF.ProjectId,footcon,666f6f74-636f-46e2-9e6b-696361645f70,0.10*%
%TF.SameCoordinates,Original*%
%TF.FileFunction,Copper,L2,Bot*%
%TF.FilePolarity,Positive*%
%FSLAX46Y46*%
G04 Gerber Fmt 4.6, Leading zero omitted, Abs format (unit mm)*
G04 Created by KiCad (PCBNEW (7.0.0)) date 2023-02-28 10:18:03*
%MOMM*%
%LPD*%
G01*
G04 APERTURE LIST*
%TA.AperFunction,ComponentPad*%
%ADD10R,3.000000X3.000000*%
%TD*%
%TA.AperFunction,ComponentPad*%
%ADD11C,3.000000*%
%TD*%
%TA.AperFunction,ComponentPad*%
%ADD12O,1.700000X1.700000*%
%TD*%
%TA.AperFunction,ViaPad*%
%ADD13C,0.800000*%
%TD*%
G04 APERTURE END LIST*
D10*
%TO.P,J4,1,S*%
%TO.N,GND*%
X169116667Y-72899999D03*
D11*
%TO.P,J4,2,R*%
%TO.N,unconnected-(J4-R-Pad2)*%
X169116668Y-79200000D03*
%TO.P,J4,3,J*%
%TO.N,Net-(J4-J)*%
X169116668Y-85500000D03*
%TO.P,J4,4,SN*%
%TO.N,unconnected-(J4-SN-Pad4)*%
X185416668Y-73100000D03*
%TO.P,J4,5,RN*%
%TO.N,unconnected-(J4-RN-Pad5)*%
X185416668Y-79200000D03*
%TO.P,J4,6,TN*%
%TO.N,unconnected-(J4-TN-Pad6)*%
X185416668Y-85500000D03*
%TD*%
D10*
%TO.P,J1,1,S*%
%TO.N,GND*%
X105586667Y-72899999D03*
D11*
%TO.P,J1,2,R*%
%TO.N,unconnected-(J1-R-Pad2)*%
X105586668Y-79200000D03*
%TO.P,J1,3,J*%
%TO.N,Net-(J1-J)*%
X105586668Y-85500000D03*
%TO.P,J1,4,SN*%
%TO.N,unconnected-(J1-SN-Pad4)*%
X121886668Y-73100000D03*
%TO.P,J1,5,RN*%
%TO.N,unconnected-(J1-RN-Pad5)*%
X121886668Y-79200000D03*
%TO.P,J1,6,TN*%
%TO.N,unconnected-(J1-TN-Pad6)*%
X121886668Y-85500000D03*
%TD*%
D12*
%TO.P,REF\u002A\u002A,1*%
%TO.N,Net-(J1-J)*%
X157036667Y-135074999D03*
%TO.P,REF\u002A\u002A,2*%
%TO.N,Net-(J2-J)*%
X157036667Y-132534999D03*
%TO.P,REF\u002A\u002A,3*%
%TO.N,Net-(J3-J)*%
X157036667Y-129994999D03*
%TO.P,REF\u002A\u002A,4*%
%TO.N,Net-(J4-J)*%
X157036667Y-127454999D03*
%TO.P,REF\u002A\u002A,5*%
%TO.N,unconnected-(U1-PA8_A4_D4_SDA-Pad5)*%
X157036667Y-124914999D03*
%TO.P,REF\u002A\u002A,6*%
%TO.N,unconnected-(U1-PA9_A5_D5_SCL-Pad6)*%
X157036667Y-122374999D03*
%TO.P,REF\u002A\u002A,7*%
%TO.N,unconnected-(U1-PB08_A6_D6_TX-Pad7)*%
X157036667Y-119834999D03*
%TD*%
D10*
%TO.P,J2,1,S*%
%TO.N,GND*%
X126783333Y-72899999D03*
D11*
%TO.P,J2,2,R*%
%TO.N,unconnected-(J2-R-Pad2)*%
X126783334Y-79200000D03*
%TO.P,J2,3,J*%
%TO.N,Net-(J2-J)*%
X126783334Y-85500000D03*
%TO.P,J2,4,SN*%
%TO.N,unconnected-(J2-SN-Pad4)*%
X143083334Y-73100000D03*
%TO.P,J2,5,RN*%
%TO.N,unconnected-(J2-RN-Pad5)*%
X143083334Y-79200000D03*
%TO.P,J2,6,TN*%
%TO.N,unconnected-(J2-TN-Pad6)*%
X143083334Y-85500000D03*
%TD*%
D10*
%TO.P,J3,1,S*%
%TO.N,GND*%
X147949999Y-72899999D03*
D11*
%TO.P,J3,2,R*%
%TO.N,unconnected-(J3-R-Pad2)*%
X147950000Y-79200000D03*
%TO.P,J3,3,J*%
%TO.N,Net-(J3-J)*%
X147950000Y-85500000D03*
%TO.P,J3,4,SN*%
%TO.N,unconnected-(J3-SN-Pad4)*%
X164250000Y-73100000D03*
%TO.P,J3,5,RN*%
%TO.N,unconnected-(J3-RN-Pad5)*%
X164250000Y-79200000D03*
%TO.P,J3,6,TN*%
%TO.N,unconnected-(J3-TN-Pad6)*%
X164250000Y-85500000D03*
%TD*%
D12*
%TO.P,REF\u002A\u002A,8*%
%TO.N,unconnected-(U1-PB09_A7_D7_RX-Pad8)*%
X134186667Y-119834999D03*
%TO.P,REF\u002A\u002A,9*%
%TO.N,unconnected-(U1-PA7_A8_D8_SCK-Pad9)*%
X134186667Y-122374999D03*
%TO.P,REF\u002A\u002A,10*%
%TO.N,unconnected-(U1-PA5_A9_D9_MISO-Pad10)*%
X134186667Y-124914999D03*
%TO.P,REF\u002A\u002A,11*%
%TO.N,unconnected-(U1-PA6_A10_D10_MOSI-Pad11)*%
X134186667Y-127454999D03*
%TO.P,REF\u002A\u002A,12*%
%TO.N,+3.3V*%
X134186667Y-129994999D03*
%TO.P,REF\u002A\u002A,13*%
%TO.N,GND*%
X134186667Y-132534999D03*
%TO.P,REF\u002A\u002A,14*%
%TO.N,unconnected-(U1-5V-Pad14)*%
X134186667Y-135074999D03*
%TD*%
D13*
%TO.N,GND*%
X139056668Y-76000000D03*
X142956668Y-96800000D03*
X180956668Y-75800000D03*
X157356668Y-102800000D03*
X140956668Y-134000000D03*
X157556668Y-97000000D03*
X107256668Y-116500000D03*
X172056668Y-96500000D03*
X143056668Y-102400000D03*
X116356668Y-75700000D03*
X141056668Y-128200000D03*
X159956668Y-114300000D03*
X101556668Y-82500000D03*
X101956668Y-96900000D03*
X150756668Y-96900000D03*
X132056668Y-84800000D03*
X164156668Y-96900000D03*
X110956668Y-106400000D03*
X152756668Y-84900000D03*
X115656668Y-110100000D03*
X136556668Y-96900000D03*
X147056668Y-134000000D03*
X121656668Y-106700000D03*
X136856668Y-102100000D03*
X135656668Y-111400000D03*
X173856668Y-84600000D03*
X121156668Y-96700000D03*
X166256668Y-108700000D03*
X150856668Y-103000000D03*
X129856668Y-108200000D03*
X159856668Y-75800000D03*
X111056668Y-96800000D03*
X115856668Y-101800000D03*
X150856668Y-109400000D03*
X101956668Y-111800000D03*
X111156668Y-83600000D03*
X130456668Y-96700000D03*
X121956668Y-117200000D03*
%TD*%
%TA.AperFunction,Conductor*%
%TO.N,GND*%
G36*
X103653457Y-70919005D02*
G01*
X103699174Y-70968996D01*
X103711796Y-71035553D01*
X103687557Y-71098811D01*
X103648630Y-71150810D01*
X103640215Y-71166222D01*
X103595779Y-71285358D01*
X103592241Y-71300332D01*
X103587021Y-71348885D01*
X103586668Y-71355482D01*
X103586668Y-72633674D01*
X103590118Y-72646549D01*
X103602994Y-72650000D01*
X107570342Y-72650000D01*
X107583217Y-72646549D01*
X107586668Y-72633674D01*
X107586668Y-71355482D01*
X107586314Y-71348885D01*
X107581094Y-71300332D01*
X107577556Y-71285358D01*
X107533120Y-71166222D01*
X107524705Y-71150810D01*
X107485779Y-71098811D01*
X107461540Y-71035553D01*
X107474162Y-70968996D01*
X107519879Y-70919005D01*
X107585046Y-70900500D01*
X121433011Y-70900500D01*
X121491139Y-70914968D01*
X121535702Y-70954997D01*
X121556301Y-71011245D01*
X121548129Y-71070586D01*
X121513093Y-71119173D01*
X121459369Y-71145666D01*
X121325947Y-71174690D01*
X121325944Y-71174690D01*
X121321622Y-71175631D01*
X121317486Y-71177173D01*
X121317478Y-71177176D01*
X121057655Y-71274085D01*
X121057644Y-71274089D01*
X121053507Y-71275633D01*
X121049629Y-71277750D01*
X121049617Y-71277756D01*
X120806247Y-71410647D01*
X120806239Y-71410651D01*
X120802353Y-71412774D01*
X120798803Y-71415431D01*
X120798799Y-71415434D01*
X120576824Y-71581602D01*
X120576817Y-71581607D01*
X120573273Y-71584261D01*
X120570142Y-71587391D01*
X120570135Y-71587398D01*
X120374066Y-71783467D01*
X120374059Y-71783474D01*
X120370929Y-71786605D01*
X120368275Y-71790149D01*
X120368270Y-71790156D01*
X120226070Y-71980114D01*
X120199442Y-72015685D01*
X120197319Y-72019571D01*
X120197315Y-72019579D01*
X120064424Y-72262949D01*
X120064418Y-72262961D01*
X120062301Y-72266839D01*
X120060757Y-72270976D01*
X120060753Y-72270987D01*
X119963844Y-72530810D01*
X119963841Y-72530818D01*
X119962299Y-72534954D01*
X119961358Y-72539276D01*
X119961358Y-72539279D01*
X119902414Y-72810238D01*
X119902412Y-72810248D01*
X119901472Y-72814572D01*
X119901156Y-72818983D01*
X119901155Y-72818994D01*
X119891514Y-72953802D01*
X119881058Y-73100000D01*
X119881374Y-73104418D01*
X119901155Y-73381005D01*
X119901156Y-73381014D01*
X119901472Y-73385428D01*
X119902412Y-73389753D01*
X119902414Y-73389761D01*
X119954679Y-73630017D01*
X119962299Y-73665046D01*
X119963843Y-73669185D01*
X119963844Y-73669189D01*
X120036379Y-73863663D01*
X120062301Y-73933161D01*
X120064421Y-73937043D01*
X120064424Y-73937050D01*
X120143715Y-74082259D01*
X120199442Y-74184315D01*
X120370929Y-74413395D01*
X120573273Y-74615739D01*
X120802353Y-74787226D01*
X121053507Y-74924367D01*
X121321622Y-75024369D01*
X121601240Y-75085196D01*
X121886668Y-75105610D01*
X122172096Y-75085196D01*
X122451714Y-75024369D01*
X122719829Y-74924367D01*
X122970983Y-74787226D01*
X123200063Y-74615739D01*
X123371284Y-74444518D01*
X124783334Y-74444518D01*
X124783687Y-74451114D01*
X124788907Y-74499667D01*
X124792445Y-74514641D01*
X124836881Y-74633777D01*
X124845296Y-74649189D01*
X124920832Y-74750092D01*
X124933241Y-74762501D01*
X125034144Y-74838037D01*
X125049556Y-74846452D01*
X125168692Y-74890888D01*
X125183666Y-74894426D01*
X125232219Y-74899646D01*
X125238816Y-74900000D01*
X126517008Y-74900000D01*
X126529883Y-74896549D01*
X126533334Y-74883674D01*
X127033334Y-74883674D01*
X127036784Y-74896549D01*
X127049660Y-74900000D01*
X128327852Y-74900000D01*
X128334448Y-74899646D01*
X128383001Y-74894426D01*
X128397975Y-74890888D01*
X128517111Y-74846452D01*
X128532523Y-74838037D01*
X128633426Y-74762501D01*
X128645835Y-74750092D01*
X128721371Y-74649189D01*
X128729786Y-74633777D01*
X128774222Y-74514641D01*
X128777760Y-74499667D01*
X128782980Y-74451114D01*
X128783334Y-74444518D01*
X128783334Y-73166326D01*
X128779883Y-73153450D01*
X128767008Y-73150000D01*
X127049660Y-73150000D01*
X127036784Y-73153450D01*
X127033334Y-73166326D01*
X127033334Y-74883674D01*
X126533334Y-74883674D01*
X126533334Y-73166326D01*
X126529883Y-73153450D01*
X126517008Y-73150000D01*
X124799660Y-73150000D01*
X124786784Y-73153450D01*
X124783334Y-73166326D01*
X124783334Y-74444518D01*
X123371284Y-74444518D01*
X123402407Y-74413395D01*
X123573894Y-74184315D01*
X123711035Y-73933161D01*
X123811037Y-73665046D01*
X123871864Y-73385428D01*
X123892278Y-73100000D01*
X123871864Y-72814572D01*
X123811037Y-72534954D01*
X123711035Y-72266839D01*
X123573894Y-72015685D01*
X123402407Y-71786605D01*
X123200063Y-71584261D01*
X122970983Y-71412774D01*
X122907210Y-71377951D01*
X122723718Y-71277756D01*
X122723711Y-71277753D01*
X122719829Y-71275633D01*
X122715685Y-71274087D01*
X122715680Y-71274085D01*
X122455857Y-71177176D01*
X122455853Y-71177175D01*
X122451714Y-71175631D01*
X122379760Y-71159978D01*
X122313967Y-71145666D01*
X122260243Y-71119173D01*
X122225207Y-71070586D01*
X122217035Y-71011245D01*
X122237634Y-70954997D01*
X122282197Y-70914968D01*
X122340325Y-70900500D01*
X124784956Y-70900500D01*
X124850123Y-70919005D01*
X124895840Y-70968996D01*
X124908462Y-71035553D01*
X124884223Y-71098811D01*
X124845296Y-71150810D01*
X124836881Y-71166222D01*
X124792445Y-71285358D01*
X124788907Y-71300332D01*
X124783687Y-71348885D01*
X124783334Y-71355482D01*
X124783334Y-72633674D01*
X124786784Y-72646549D01*
X124799660Y-72650000D01*
X128767008Y-72650000D01*
X128779883Y-72646549D01*
X128783334Y-72633674D01*
X128783334Y-71355482D01*
X128782980Y-71348885D01*
X128777760Y-71300332D01*
X128774222Y-71285358D01*
X128729786Y-71166222D01*
X128721371Y-71150810D01*
X128682445Y-71098811D01*
X128658206Y-71035553D01*
X128670828Y-70968996D01*
X128716545Y-70919005D01*
X128781712Y-70900500D01*
X142629677Y-70900500D01*
X142687805Y-70914968D01*
X142732368Y-70954997D01*
X142752967Y-71011245D01*
X142744795Y-71070586D01*
X142709759Y-71119173D01*
X142656035Y-71145666D01*
X142522613Y-71174690D01*
X142522610Y-71174690D01*
X142518288Y-71175631D01*
X142514152Y-71177173D01*
X142514144Y-71177176D01*
X142254321Y-71274085D01*
X142254310Y-71274089D01*
X142250173Y-71275633D01*
X142246295Y-71277750D01*
X142246283Y-71277756D01*
X142002913Y-71410647D01*
X142002905Y-71410651D01*
X141999019Y-71412774D01*
X141995469Y-71415431D01*
X141995465Y-71415434D01*
X141773490Y-71581602D01*
X141773483Y-71581607D01*
X141769939Y-71584261D01*
X141766808Y-71587391D01*
X141766801Y-71587398D01*
X141570732Y-71783467D01*
X141570725Y-71783474D01*
X141567595Y-71786605D01*
X141564941Y-71790149D01*
X141564936Y-71790156D01*
X141422736Y-71980114D01*
X141396108Y-72015685D01*
X141393985Y-72019571D01*
X141393981Y-72019579D01*
X141261090Y-72262949D01*
X141261084Y-72262961D01*
X141258967Y-72266839D01*
X141257423Y-72270976D01*
X141257419Y-72270987D01*
X141160510Y-72530810D01*
X141160507Y-72530818D01*
X141158965Y-72534954D01*
X141158024Y-72539276D01*
X141158024Y-72539279D01*
X141099080Y-72810238D01*
X141099078Y-72810248D01*
X141098138Y-72814572D01*
X141097822Y-72818983D01*
X141097821Y-72818994D01*
X141088180Y-72953802D01*
X141077724Y-73100000D01*
X141078040Y-73104418D01*
X141097821Y-73381005D01*
X141097822Y-73381014D01*
X141098138Y-73385428D01*
X141099078Y-73389753D01*
X141099080Y-73389761D01*
X141151345Y-73630017D01*
X141158965Y-73665046D01*
X141160509Y-73669185D01*
X141160510Y-73669189D01*
X141233045Y-73863663D01*
X141258967Y-73933161D01*
X141261087Y-73937043D01*
X141261090Y-73937050D01*
X141340381Y-74082259D01*
X141396108Y-74184315D01*
X141567595Y-74413395D01*
X141769939Y-74615739D01*
X141999019Y-74787226D01*
X142250173Y-74924367D01*
X142518288Y-75024369D01*
X142797906Y-75085196D01*
X143083334Y-75105610D01*
X143368762Y-75085196D01*
X143648380Y-75024369D01*
X143916495Y-74924367D01*
X144167649Y-74787226D01*
X144396729Y-74615739D01*
X144567950Y-74444518D01*
X145950000Y-74444518D01*
X145950353Y-74451114D01*
X145955573Y-74499667D01*
X145959111Y-74514641D01*
X146003547Y-74633777D01*
X146011962Y-74649189D01*
X146087498Y-74750092D01*
X146099907Y-74762501D01*
X146200810Y-74838037D01*
X146216222Y-74846452D01*
X146335358Y-74890888D01*
X146350332Y-74894426D01*
X146398885Y-74899646D01*
X146405482Y-74900000D01*
X147683674Y-74900000D01*
X147696549Y-74896549D01*
X147700000Y-74883674D01*
X148200000Y-74883674D01*
X148203450Y-74896549D01*
X148216326Y-74900000D01*
X149494518Y-74900000D01*
X149501114Y-74899646D01*
X149549667Y-74894426D01*
X149564641Y-74890888D01*
X149683777Y-74846452D01*
X149699189Y-74838037D01*
X149800092Y-74762501D01*
X149812501Y-74750092D01*
X149888037Y-74649189D01*
X149896452Y-74633777D01*
X149940888Y-74514641D01*
X149944426Y-74499667D01*
X149949646Y-74451114D01*
X149950000Y-74444518D01*
X149950000Y-73166326D01*
X149946549Y-73153450D01*
X149933674Y-73150000D01*
X148216326Y-73150000D01*
X148203450Y-73153450D01*
X148200000Y-73166326D01*
X148200000Y-74883674D01*
X147700000Y-74883674D01*
X147700000Y-73166326D01*
X147696549Y-73153450D01*
X147683674Y-73150000D01*
X145966326Y-73150000D01*
X145953450Y-73153450D01*
X145950000Y-73166326D01*
X145950000Y-74444518D01*
X144567950Y-74444518D01*
X144599073Y-74413395D01*
X144770560Y-74184315D01*
X144907701Y-73933161D01*
X145007703Y-73665046D01*
X145068530Y-73385428D01*
X145088944Y-73100000D01*
X145068530Y-72814572D01*
X145007703Y-72534954D01*
X144907701Y-72266839D01*
X144770560Y-72015685D01*
X144599073Y-71786605D01*
X144396729Y-71584261D01*
X144167649Y-71412774D01*
X144103876Y-71377951D01*
X143920384Y-71277756D01*
X143920377Y-71277753D01*
X143916495Y-71275633D01*
X143912351Y-71274087D01*
X143912346Y-71274085D01*
X143652523Y-71177176D01*
X143652519Y-71177175D01*
X143648380Y-71175631D01*
X143576426Y-71159978D01*
X143510633Y-71145666D01*
X143456909Y-71119173D01*
X143421873Y-71070586D01*
X143413701Y-71011245D01*
X143434300Y-70954997D01*
X143478863Y-70914968D01*
X143536991Y-70900500D01*
X145951622Y-70900500D01*
X146016789Y-70919005D01*
X146062506Y-70968996D01*
X146075128Y-71035553D01*
X146050889Y-71098811D01*
X146011962Y-71150810D01*
X146003547Y-71166222D01*
X145959111Y-71285358D01*
X145955573Y-71300332D01*
X145950353Y-71348885D01*
X145950000Y-71355482D01*
X145950000Y-72633674D01*
X145953450Y-72646549D01*
X145966326Y-72650000D01*
X149933674Y-72650000D01*
X149946549Y-72646549D01*
X149950000Y-72633674D01*
X149950000Y-71355482D01*
X149949646Y-71348885D01*
X149944426Y-71300332D01*
X149940888Y-71285358D01*
X149896452Y-71166222D01*
X149888037Y-71150810D01*
X149849111Y-71098811D01*
X149824872Y-71035553D01*
X149837494Y-70968996D01*
X149883211Y-70919005D01*
X149948378Y-70900500D01*
X163796343Y-70900500D01*
X163854471Y-70914968D01*
X163899034Y-70954997D01*
X163919633Y-71011245D01*
X163911461Y-71070586D01*
X163876425Y-71119173D01*
X163822701Y-71145666D01*
X163689279Y-71174690D01*
X163689276Y-71174690D01*
X163684954Y-71175631D01*
X163680818Y-71177173D01*
X163680810Y-71177176D01*
X163420987Y-71274085D01*
X163420976Y-71274089D01*
X163416839Y-71275633D01*
X163412961Y-71277750D01*
X163412949Y-71277756D01*
X163169579Y-71410647D01*
X163169571Y-71410651D01*
X163165685Y-71412774D01*
X163162135Y-71415431D01*
X163162131Y-71415434D01*
X162940156Y-71581602D01*
X162940149Y-71581607D01*
X162936605Y-71584261D01*
X162933474Y-71587391D01*
X162933467Y-71587398D01*
X162737398Y-71783467D01*
X162737391Y-71783474D01*
X162734261Y-71786605D01*
X162731607Y-71790149D01*
X162731602Y-71790156D01*
X162589402Y-71980114D01*
X162562774Y-72015685D01*
X162560651Y-72019571D01*
X162560647Y-72019579D01*
X162427756Y-72262949D01*
X162427750Y-72262961D01*
X162425633Y-72266839D01*
X162424089Y-72270976D01*
X162424085Y-72270987D01*
X162327176Y-72530810D01*
X162327173Y-72530818D01*
X162325631Y-72534954D01*
X162324690Y-72539276D01*
X162324690Y-72539279D01*
X162265746Y-72810238D01*
X162265744Y-72810248D01*
X162264804Y-72814572D01*
X162264488Y-72818983D01*
X162264487Y-72818994D01*
X162254846Y-72953802D01*
X162244390Y-73100000D01*
X162244706Y-73104418D01*
X162264487Y-73381005D01*
X162264488Y-73381014D01*
X162264804Y-73385428D01*
X162265744Y-73389753D01*
X162265746Y-73389761D01*
X162318011Y-73630017D01*
X162325631Y-73665046D01*
X162327175Y-73669185D01*
X162327176Y-73669189D01*
X162399711Y-73863663D01*
X162425633Y-73933161D01*
X162427753Y-73937043D01*
X162427756Y-73937050D01*
X162507047Y-74082259D01*
X162562774Y-74184315D01*
X162734261Y-74413395D01*
X162936605Y-74615739D01*
X163165685Y-74787226D01*
X163416839Y-74924367D01*
X163684954Y-75024369D01*
X163964572Y-75085196D01*
X164250000Y-75105610D01*
X164535428Y-75085196D01*
X164815046Y-75024369D01*
X165083161Y-74924367D01*
X165334315Y-74787226D01*
X165563395Y-74615739D01*
X165734616Y-74444518D01*
X167116668Y-74444518D01*
X167117021Y-74451114D01*
X167122241Y-74499667D01*
X167125779Y-74514641D01*
X167170215Y-74633777D01*
X167178630Y-74649189D01*
X167254166Y-74750092D01*
X167266575Y-74762501D01*
X167367478Y-74838037D01*
X167382890Y-74846452D01*
X167502026Y-74890888D01*
X167517000Y-74894426D01*
X167565553Y-74899646D01*
X167572150Y-74900000D01*
X168850342Y-74900000D01*
X168863217Y-74896549D01*
X168866668Y-74883674D01*
X169366668Y-74883674D01*
X169370118Y-74896549D01*
X169382994Y-74900000D01*
X170661186Y-74900000D01*
X170667782Y-74899646D01*
X170716335Y-74894426D01*
X170731309Y-74890888D01*
X170850445Y-74846452D01*
X170865857Y-74838037D01*
X170966760Y-74762501D01*
X170979169Y-74750092D01*
X171054705Y-74649189D01*
X171063120Y-74633777D01*
X171107556Y-74514641D01*
X171111094Y-74499667D01*
X171116314Y-74451114D01*
X171116668Y-74444518D01*
X171116668Y-73166326D01*
X171113217Y-73153450D01*
X171100342Y-73150000D01*
X169382994Y-73150000D01*
X169370118Y-73153450D01*
X169366668Y-73166326D01*
X169366668Y-74883674D01*
X168866668Y-74883674D01*
X168866668Y-73166326D01*
X168863217Y-73153450D01*
X168850342Y-73150000D01*
X167132994Y-73150000D01*
X167120118Y-73153450D01*
X167116668Y-73166326D01*
X167116668Y-74444518D01*
X165734616Y-74444518D01*
X165765739Y-74413395D01*
X165937226Y-74184315D01*
X166074367Y-73933161D01*
X166174369Y-73665046D01*
X166235196Y-73385428D01*
X166255610Y-73100000D01*
X166235196Y-72814572D01*
X166174369Y-72534954D01*
X166074367Y-72266839D01*
X165937226Y-72015685D01*
X165765739Y-71786605D01*
X165563395Y-71584261D01*
X165334315Y-71412774D01*
X165270542Y-71377951D01*
X165087050Y-71277756D01*
X165087043Y-71277753D01*
X165083161Y-71275633D01*
X165079017Y-71274087D01*
X165079012Y-71274085D01*
X164819189Y-71177176D01*
X164819185Y-71177175D01*
X164815046Y-71175631D01*
X164743092Y-71159978D01*
X164677299Y-71145666D01*
X164623575Y-71119173D01*
X164588539Y-71070586D01*
X164580367Y-71011245D01*
X164600966Y-70954997D01*
X164645529Y-70914968D01*
X164703657Y-70900500D01*
X167118290Y-70900500D01*
X167183457Y-70919005D01*
X167229174Y-70968996D01*
X167241796Y-71035553D01*
X167217557Y-71098811D01*
X167178630Y-71150810D01*
X167170215Y-71166222D01*
X167125779Y-71285358D01*
X167122241Y-71300332D01*
X167117021Y-71348885D01*
X167116668Y-71355482D01*
X167116668Y-72633674D01*
X167120118Y-72646549D01*
X167132994Y-72650000D01*
X171100342Y-72650000D01*
X171113217Y-72646549D01*
X171116668Y-72633674D01*
X171116668Y-71355482D01*
X171116314Y-71348885D01*
X171111094Y-71300332D01*
X171107556Y-71285358D01*
X171063120Y-71166222D01*
X171054705Y-71150810D01*
X171015779Y-71098811D01*
X170991540Y-71035553D01*
X171004162Y-70968996D01*
X171049879Y-70919005D01*
X171115046Y-70900500D01*
X184963011Y-70900500D01*
X185021139Y-70914968D01*
X185065702Y-70954997D01*
X185086301Y-71011245D01*
X185078129Y-71070586D01*
X185043093Y-71119173D01*
X184989369Y-71145666D01*
X184855947Y-71174690D01*
X184855944Y-71174690D01*
X184851622Y-71175631D01*
X184847486Y-71177173D01*
X184847478Y-71177176D01*
X184587655Y-71274085D01*
X184587644Y-71274089D01*
X184583507Y-71275633D01*
X184579629Y-71277750D01*
X184579617Y-71277756D01*
X184336247Y-71410647D01*
X184336239Y-71410651D01*
X184332353Y-71412774D01*
X184328803Y-71415431D01*
X184328799Y-71415434D01*
X184106824Y-71581602D01*
X184106817Y-71581607D01*
X184103273Y-71584261D01*
X184100142Y-71587391D01*
X184100135Y-71587398D01*
X183904066Y-71783467D01*
X183904059Y-71783474D01*
X183900929Y-71786605D01*
X183898275Y-71790149D01*
X183898270Y-71790156D01*
X183756070Y-71980114D01*
X183729442Y-72015685D01*
X183727319Y-72019571D01*
X183727315Y-72019579D01*
X183594424Y-72262949D01*
X183594418Y-72262961D01*
X183592301Y-72266839D01*
X183590757Y-72270976D01*
X183590753Y-72270987D01*
X183493844Y-72530810D01*
X183493841Y-72530818D01*
X183492299Y-72534954D01*
X183491358Y-72539276D01*
X183491358Y-72539279D01*
X183432414Y-72810238D01*
X183432412Y-72810248D01*
X183431472Y-72814572D01*
X183431156Y-72818983D01*
X183431155Y-72818994D01*
X183421514Y-72953802D01*
X183411058Y-73100000D01*
X183411374Y-73104418D01*
X183431155Y-73381005D01*
X183431156Y-73381014D01*
X183431472Y-73385428D01*
X183432412Y-73389753D01*
X183432414Y-73389761D01*
X183484679Y-73630017D01*
X183492299Y-73665046D01*
X183493843Y-73669185D01*
X183493844Y-73669189D01*
X183566379Y-73863663D01*
X183592301Y-73933161D01*
X183594421Y-73937043D01*
X183594424Y-73937050D01*
X183673715Y-74082259D01*
X183729442Y-74184315D01*
X183900929Y-74413395D01*
X184103273Y-74615739D01*
X184332353Y-74787226D01*
X184583507Y-74924367D01*
X184851622Y-75024369D01*
X185131240Y-75085196D01*
X185416668Y-75105610D01*
X185702096Y-75085196D01*
X185981714Y-75024369D01*
X186249829Y-74924367D01*
X186500983Y-74787226D01*
X186730063Y-74615739D01*
X186932407Y-74413395D01*
X187103894Y-74184315D01*
X187241035Y-73933161D01*
X187341037Y-73665046D01*
X187398694Y-73400000D01*
X189101009Y-73400000D01*
X189121605Y-73635408D01*
X189123004Y-73640630D01*
X189123005Y-73640634D01*
X189181362Y-73858430D01*
X189181365Y-73858438D01*
X189182765Y-73863663D01*
X189282633Y-74077829D01*
X189418173Y-74271401D01*
X189585267Y-74438495D01*
X189778839Y-74574035D01*
X189993005Y-74673903D01*
X190221260Y-74735063D01*
X190397702Y-74750500D01*
X190512926Y-74750500D01*
X190515634Y-74750500D01*
X190692076Y-74735063D01*
X190920331Y-74673903D01*
X191134497Y-74574035D01*
X191328069Y-74438495D01*
X191495163Y-74271401D01*
X191630703Y-74077830D01*
X191730571Y-73863663D01*
X191791731Y-73635408D01*
X191812327Y-73400000D01*
X191791731Y-73164592D01*
X191730571Y-72936337D01*
X191630703Y-72722171D01*
X191495163Y-72528599D01*
X191328069Y-72361505D01*
X191260725Y-72314350D01*
X191138936Y-72229073D01*
X191138934Y-72229072D01*
X191134497Y-72225965D01*
X190920331Y-72126097D01*
X190915106Y-72124697D01*
X190915098Y-72124694D01*
X190697302Y-72066337D01*
X190697298Y-72066336D01*
X190692076Y-72064937D01*
X190686688Y-72064465D01*
X190686685Y-72064465D01*
X190518332Y-72049736D01*
X190518330Y-72049735D01*
X190515634Y-72049500D01*
X190397702Y-72049500D01*
X190395006Y-72049735D01*
X190395003Y-72049736D01*
X190226650Y-72064465D01*
X190226645Y-72064465D01*
X190221260Y-72064937D01*
X190216039Y-72066335D01*
X190216033Y-72066337D01*
X189998237Y-72124694D01*
X189998225Y-72124698D01*
X189993005Y-72126097D01*
X189988100Y-72128383D01*
X189988095Y-72128386D01*
X189783749Y-72223675D01*
X189783745Y-72223677D01*
X189778839Y-72225965D01*
X189774406Y-72229068D01*
X189774399Y-72229073D01*
X189589702Y-72358399D01*
X189589697Y-72358402D01*
X189585267Y-72361505D01*
X189581443Y-72365328D01*
X189581437Y-72365334D01*
X189422004Y-72524767D01*
X189421998Y-72524773D01*
X189418173Y-72528599D01*
X189415074Y-72533023D01*
X189415067Y-72533033D01*
X189285734Y-72717740D01*
X189285729Y-72717747D01*
X189282633Y-72722170D01*
X189280351Y-72727061D01*
X189280346Y-72727072D01*
X189185054Y-72931427D01*
X189185051Y-72931432D01*
X189182765Y-72936337D01*
X189181366Y-72941557D01*
X189181362Y-72941569D01*
X189123005Y-73159365D01*
X189123003Y-73159371D01*
X189121605Y-73164592D01*
X189121133Y-73169977D01*
X189121133Y-73169982D01*
X189102671Y-73381005D01*
X189101009Y-73400000D01*
X187398694Y-73400000D01*
X187401864Y-73385428D01*
X187422278Y-73100000D01*
X187401864Y-72814572D01*
X187341037Y-72534954D01*
X187241035Y-72266839D01*
X187103894Y-72015685D01*
X186932407Y-71786605D01*
X186730063Y-71584261D01*
X186500983Y-71412774D01*
X186437210Y-71377951D01*
X186253718Y-71277756D01*
X186253711Y-71277753D01*
X186249829Y-71275633D01*
X186245685Y-71274087D01*
X186245680Y-71274085D01*
X185985857Y-71177176D01*
X185985853Y-71177175D01*
X185981714Y-71175631D01*
X185909760Y-71159978D01*
X185843967Y-71145666D01*
X185790243Y-71119173D01*
X185755207Y-71070586D01*
X185747035Y-71011245D01*
X185767634Y-70954997D01*
X185812197Y-70914968D01*
X185870325Y-70900500D01*
X190452920Y-70900500D01*
X190460404Y-70900725D01*
X190553569Y-70906360D01*
X190553866Y-70906379D01*
X190759757Y-70919891D01*
X190773941Y-70921650D01*
X190902898Y-70945281D01*
X190904687Y-70945622D01*
X191069403Y-70978384D01*
X191082069Y-70981607D01*
X191215139Y-71023072D01*
X191218075Y-71024028D01*
X191369229Y-71075337D01*
X191380238Y-71079672D01*
X191510322Y-71138216D01*
X191514267Y-71140076D01*
X191654489Y-71209224D01*
X191663756Y-71214297D01*
X191787249Y-71288950D01*
X191791976Y-71291955D01*
X191920679Y-71377951D01*
X191928226Y-71383417D01*
X192042452Y-71472906D01*
X192047715Y-71477269D01*
X192163577Y-71578876D01*
X192163580Y-71578878D01*
X192169498Y-71584421D01*
X192272260Y-71687182D01*
X192277791Y-71693086D01*
X192357054Y-71783467D01*
X192379396Y-71808943D01*
X192383776Y-71814225D01*
X192473264Y-71928447D01*
X192478739Y-71936007D01*
X192554573Y-72049500D01*
X192564712Y-72064674D01*
X192567727Y-72069415D01*
X192642374Y-72192897D01*
X192647469Y-72202202D01*
X192716600Y-72342383D01*
X192718463Y-72346336D01*
X192777013Y-72476427D01*
X192781357Y-72487460D01*
X192832659Y-72638590D01*
X192833625Y-72641558D01*
X192875076Y-72774577D01*
X192878308Y-72787276D01*
X192911067Y-72951961D01*
X192911419Y-72953802D01*
X192935035Y-73082676D01*
X192936800Y-73096917D01*
X192950576Y-73307087D01*
X192950616Y-73307709D01*
X192955942Y-73395746D01*
X192956168Y-73403234D01*
X192956168Y-134396249D01*
X192955942Y-134403737D01*
X192950078Y-134500672D01*
X192950039Y-134501283D01*
X192936867Y-134702531D01*
X192935101Y-134716783D01*
X192910622Y-134850367D01*
X192910270Y-134852208D01*
X192878457Y-135012137D01*
X192875225Y-135024836D01*
X192832838Y-135160858D01*
X192831872Y-135163825D01*
X192781603Y-135311913D01*
X192777259Y-135322947D01*
X192717685Y-135455314D01*
X192715822Y-135459266D01*
X192647831Y-135597137D01*
X192642735Y-135606444D01*
X192566974Y-135731765D01*
X192563960Y-135736505D01*
X192479237Y-135863302D01*
X192473745Y-135870885D01*
X192383049Y-135986649D01*
X192378667Y-135991935D01*
X192278470Y-136106186D01*
X192272923Y-136112108D01*
X192168784Y-136216246D01*
X192162861Y-136221793D01*
X192048623Y-136321976D01*
X192043337Y-136326359D01*
X191927546Y-136417073D01*
X191919964Y-136422563D01*
X191793184Y-136507274D01*
X191788443Y-136510289D01*
X191663122Y-136586047D01*
X191653816Y-136591143D01*
X191515919Y-136659145D01*
X191511965Y-136661008D01*
X191379625Y-136720567D01*
X191368594Y-136724911D01*
X191220485Y-136775186D01*
X191217516Y-136776152D01*
X191081505Y-136818533D01*
X191068806Y-136821765D01*
X190908828Y-136853585D01*
X190906988Y-136853936D01*
X190773442Y-136878407D01*
X190759201Y-136880173D01*
X190562153Y-136893086D01*
X190561531Y-136893125D01*
X190464472Y-136898995D01*
X190459874Y-136899274D01*
X190452390Y-136899500D01*
X100460422Y-136899500D01*
X100452933Y-136899274D01*
X100449650Y-136899075D01*
X100355961Y-136893406D01*
X100355352Y-136893367D01*
X100154142Y-136880197D01*
X100139887Y-136878430D01*
X100006258Y-136853939D01*
X100004420Y-136853588D01*
X99844536Y-136821784D01*
X99831836Y-136818552D01*
X99695816Y-136776165D01*
X99692848Y-136775199D01*
X99596560Y-136742512D01*
X99544752Y-136724925D01*
X99533727Y-136720584D01*
X99506737Y-136708437D01*
X99401352Y-136661005D01*
X99397401Y-136659142D01*
X99259536Y-136591154D01*
X99250229Y-136586058D01*
X99124913Y-136510300D01*
X99120172Y-136507286D01*
X98993370Y-136422558D01*
X98985788Y-136417066D01*
X98870022Y-136326368D01*
X98864737Y-136321986D01*
X98750490Y-136221793D01*
X98750473Y-136221778D01*
X98744572Y-136216250D01*
X98640431Y-136112108D01*
X98634889Y-136106191D01*
X98534694Y-135991939D01*
X98530312Y-135986654D01*
X98501777Y-135950232D01*
X98439599Y-135870867D01*
X98434121Y-135863302D01*
X98349379Y-135736475D01*
X98346428Y-135731836D01*
X98270621Y-135606435D01*
X98265534Y-135597142D01*
X98216958Y-135498639D01*
X98197526Y-135459234D01*
X98195685Y-135455331D01*
X98136100Y-135322937D01*
X98131762Y-135311916D01*
X98129420Y-135305017D01*
X98081492Y-135163825D01*
X98080528Y-135160864D01*
X98075666Y-135145262D01*
X98062282Y-135102308D01*
X98056668Y-135065419D01*
X98056668Y-134400000D01*
X99101009Y-134400000D01*
X99101481Y-134405395D01*
X99119956Y-134616569D01*
X99121605Y-134635408D01*
X99123004Y-134640630D01*
X99123005Y-134640634D01*
X99181362Y-134858430D01*
X99181365Y-134858438D01*
X99182765Y-134863663D01*
X99282633Y-135077829D01*
X99418173Y-135271401D01*
X99585267Y-135438495D01*
X99778839Y-135574035D01*
X99993005Y-135673903D01*
X100221260Y-135735063D01*
X100397702Y-135750500D01*
X100512926Y-135750500D01*
X100515634Y-135750500D01*
X100692076Y-135735063D01*
X100920331Y-135673903D01*
X101134497Y-135574035D01*
X101328069Y-135438495D01*
X101495163Y-135271401D01*
X101630703Y-135077830D01*
X101632023Y-135075000D01*
X132831009Y-135075000D01*
X132851605Y-135310408D01*
X132853004Y-135315630D01*
X132853005Y-135315634D01*
X132911362Y-135533430D01*
X132911365Y-135533438D01*
X132912765Y-135538663D01*
X132915053Y-135543570D01*
X132915054Y-135543572D01*
X133010346Y-135747927D01*
X133010349Y-135747933D01*
X133012633Y-135752830D01*
X133015732Y-135757257D01*
X133015734Y-135757259D01*
X133145067Y-135941966D01*
X133145070Y-135941970D01*
X133148173Y-135946401D01*
X133315267Y-136113495D01*
X133319699Y-136116598D01*
X133319701Y-136116600D01*
X133462010Y-136216246D01*
X133508838Y-136249035D01*
X133723005Y-136348903D01*
X133951260Y-136410063D01*
X134186668Y-136430659D01*
X134422076Y-136410063D01*
X134650331Y-136348903D01*
X134864498Y-136249035D01*
X135058069Y-136113495D01*
X135225163Y-135946401D01*
X135360703Y-135752830D01*
X135460571Y-135538663D01*
X135521731Y-135310408D01*
X135542327Y-135075000D01*
X155681009Y-135075000D01*
X155701605Y-135310408D01*
X155703004Y-135315630D01*
X155703005Y-135315634D01*
X155761362Y-135533430D01*
X155761365Y-135533438D01*
X155762765Y-135538663D01*
X155765053Y-135543570D01*
X155765054Y-135543572D01*
X155860346Y-135747927D01*
X155860349Y-135747933D01*
X155862633Y-135752830D01*
X155865732Y-135757257D01*
X155865734Y-135757259D01*
X155995067Y-135941966D01*
X155995070Y-135941970D01*
X155998173Y-135946401D01*
X156165267Y-136113495D01*
X156169699Y-136116598D01*
X156169701Y-136116600D01*
X156312010Y-136216246D01*
X156358838Y-136249035D01*
X156573005Y-136348903D01*
X156801260Y-136410063D01*
X157036668Y-136430659D01*
X157272076Y-136410063D01*
X157500331Y-136348903D01*
X157714498Y-136249035D01*
X157908069Y-136113495D01*
X158075163Y-135946401D01*
X158210703Y-135752830D01*
X158310571Y-135538663D01*
X158371731Y-135310408D01*
X158392327Y-135075000D01*
X158371731Y-134839592D01*
X158310571Y-134611337D01*
X158212022Y-134400000D01*
X189101009Y-134400000D01*
X189101481Y-134405395D01*
X189119956Y-134616569D01*
X189121605Y-134635408D01*
X189123004Y-134640630D01*
X189123005Y-134640634D01*
X189181362Y-134858430D01*
X189181365Y-134858438D01*
X189182765Y-134863663D01*
X189282633Y-135077829D01*
X189418173Y-135271401D01*
X189585267Y-135438495D01*
X189778839Y-135574035D01*
X189993005Y-135673903D01*
X190221260Y-135735063D01*
X190397702Y-135750500D01*
X190512926Y-135750500D01*
X190515634Y-135750500D01*
X190692076Y-135735063D01*
X190920331Y-135673903D01*
X191134497Y-135574035D01*
X191328069Y-135438495D01*
X191495163Y-135271401D01*
X191630703Y-135077830D01*
X191730571Y-134863663D01*
X191791731Y-134635408D01*
X191812327Y-134400000D01*
X191791731Y-134164592D01*
X191730571Y-133936337D01*
X191630703Y-133722171D01*
X191495163Y-133528599D01*
X191328069Y-133361505D01*
X191134497Y-133225965D01*
X190920331Y-133126097D01*
X190915106Y-133124697D01*
X190915098Y-133124694D01*
X190697302Y-133066337D01*
X190697298Y-133066336D01*
X190692076Y-133064937D01*
X190686688Y-133064465D01*
X190686685Y-133064465D01*
X190518332Y-133049736D01*
X190518330Y-133049735D01*
X190515634Y-133049500D01*
X190397702Y-133049500D01*
X190395006Y-133049735D01*
X190395003Y-133049736D01*
X190226650Y-133064465D01*
X190226645Y-133064465D01*
X190221260Y-133064937D01*
X190216039Y-133066335D01*
X190216033Y-133066337D01*
X189998237Y-133124694D01*
X189998225Y-133124698D01*
X189993005Y-133126097D01*
X189988100Y-133128383D01*
X189988095Y-133128386D01*
X189783749Y-133223675D01*
X189783745Y-133223677D01*
X189778839Y-133225965D01*
X189774406Y-133229068D01*
X189774399Y-133229073D01*
X189589702Y-133358399D01*
X189589697Y-133358402D01*
X189585267Y-133361505D01*
X189581443Y-133365328D01*
X189581437Y-133365334D01*
X189422004Y-133524767D01*
X189421998Y-133524773D01*
X189418173Y-133528599D01*
X189415074Y-133533023D01*
X189415067Y-133533033D01*
X189285734Y-133717740D01*
X189285729Y-133717747D01*
X189282633Y-133722170D01*
X189280351Y-133727061D01*
X189280346Y-133727072D01*
X189185054Y-133931427D01*
X189185051Y-133931432D01*
X189182765Y-133936337D01*
X189181366Y-133941557D01*
X189181362Y-133941569D01*
X189123005Y-134159365D01*
X189123003Y-134159371D01*
X189121605Y-134164592D01*
X189101009Y-134400000D01*
X158212022Y-134400000D01*
X158210703Y-134397171D01*
X158075163Y-134203599D01*
X157908069Y-134036505D01*
X157903636Y-134033401D01*
X157903629Y-134033395D01*
X157722510Y-133906575D01*
X157683644Y-133862257D01*
X157669633Y-133805000D01*
X157683644Y-133747743D01*
X157722510Y-133703425D01*
X157903629Y-133576604D01*
X157903629Y-133576603D01*
X157908069Y-133573495D01*
X158075163Y-133406401D01*
X158210703Y-133212830D01*
X158310571Y-132998663D01*
X158371731Y-132770408D01*
X158392327Y-132535000D01*
X158371731Y-132299592D01*
X158310571Y-132071337D01*
X158210703Y-131857171D01*
X158075163Y-131663599D01*
X157908069Y-131496505D01*
X157903638Y-131493402D01*
X157903634Y-131493399D01*
X157722509Y-131366574D01*
X157683644Y-131322256D01*
X157669633Y-131264999D01*
X157683644Y-131207742D01*
X157722507Y-131163426D01*
X157908069Y-131033495D01*
X158075163Y-130866401D01*
X158210703Y-130672830D01*
X158310571Y-130458663D01*
X158371731Y-130230408D01*
X158392327Y-129995000D01*
X158371731Y-129759592D01*
X158310571Y-129531337D01*
X158210703Y-129317171D01*
X158075163Y-129123599D01*
X157908069Y-128956505D01*
X157903636Y-128953401D01*
X157903629Y-128953395D01*
X157722510Y-128826575D01*
X157683644Y-128782257D01*
X157669633Y-128725000D01*
X157683644Y-128667743D01*
X157722510Y-128623425D01*
X157903629Y-128496604D01*
X157903629Y-128496603D01*
X157908069Y-128493495D01*
X158075163Y-128326401D01*
X158210703Y-128132830D01*
X158310571Y-127918663D01*
X158371731Y-127690408D01*
X158392327Y-127455000D01*
X158371731Y-127219592D01*
X158310571Y-126991337D01*
X158210703Y-126777171D01*
X158075163Y-126583599D01*
X157908069Y-126416505D01*
X157903636Y-126413401D01*
X157903629Y-126413395D01*
X157722510Y-126286575D01*
X157683644Y-126242257D01*
X157669633Y-126185000D01*
X157683644Y-126127743D01*
X157722510Y-126083425D01*
X157903629Y-125956604D01*
X157903629Y-125956603D01*
X157908069Y-125953495D01*
X158075163Y-125786401D01*
X158210703Y-125592830D01*
X158310571Y-125378663D01*
X158371731Y-125150408D01*
X158392327Y-124915000D01*
X158371731Y-124679592D01*
X158310571Y-124451337D01*
X158210703Y-124237171D01*
X158075163Y-124043599D01*
X157908069Y-123876505D01*
X157903636Y-123873401D01*
X157903629Y-123873395D01*
X157722510Y-123746575D01*
X157683644Y-123702257D01*
X157669633Y-123645000D01*
X157683644Y-123587743D01*
X157722510Y-123543425D01*
X157903629Y-123416604D01*
X157903629Y-123416603D01*
X157908069Y-123413495D01*
X158075163Y-123246401D01*
X158210703Y-123052830D01*
X158310571Y-122838663D01*
X158371731Y-122610408D01*
X158392327Y-122375000D01*
X158371731Y-122139592D01*
X158310571Y-121911337D01*
X158210703Y-121697171D01*
X158075163Y-121503599D01*
X157908069Y-121336505D01*
X157903636Y-121333401D01*
X157903629Y-121333395D01*
X157722510Y-121206575D01*
X157683644Y-121162257D01*
X157669633Y-121105000D01*
X157683644Y-121047743D01*
X157722510Y-121003425D01*
X157903629Y-120876604D01*
X157903629Y-120876603D01*
X157908069Y-120873495D01*
X158075163Y-120706401D01*
X158210703Y-120512830D01*
X158310571Y-120298663D01*
X158371731Y-120070408D01*
X158392327Y-119835000D01*
X158371731Y-119599592D01*
X158310571Y-119371337D01*
X158210703Y-119157171D01*
X158075163Y-118963599D01*
X157908069Y-118796505D01*
X157903638Y-118793402D01*
X157903634Y-118793399D01*
X157718927Y-118664066D01*
X157718925Y-118664064D01*
X157714498Y-118660965D01*
X157709601Y-118658681D01*
X157709595Y-118658678D01*
X157505240Y-118563386D01*
X157505238Y-118563385D01*
X157500331Y-118561097D01*
X157495106Y-118559697D01*
X157495098Y-118559694D01*
X157277302Y-118501337D01*
X157277298Y-118501336D01*
X157272076Y-118499937D01*
X157266688Y-118499465D01*
X157266685Y-118499465D01*
X157042063Y-118479813D01*
X157036668Y-118479341D01*
X157031273Y-118479813D01*
X156806650Y-118499465D01*
X156806645Y-118499465D01*
X156801260Y-118499937D01*
X156796039Y-118501335D01*
X156796033Y-118501337D01*
X156578237Y-118559694D01*
X156578225Y-118559698D01*
X156573005Y-118561097D01*
X156568100Y-118563383D01*
X156568095Y-118563386D01*
X156363749Y-118658675D01*
X156363745Y-118658677D01*
X156358839Y-118660965D01*
X156354406Y-118664068D01*
X156354399Y-118664073D01*
X156169702Y-118793399D01*
X156169697Y-118793402D01*
X156165267Y-118796505D01*
X156161443Y-118800328D01*
X156161437Y-118800334D01*
X156002002Y-118959769D01*
X156001996Y-118959775D01*
X155998173Y-118963599D01*
X155995070Y-118968029D01*
X155995067Y-118968034D01*
X155865741Y-119152731D01*
X155865736Y-119152738D01*
X155862633Y-119157171D01*
X155860345Y-119162077D01*
X155860343Y-119162081D01*
X155765054Y-119366427D01*
X155765051Y-119366432D01*
X155762765Y-119371337D01*
X155761366Y-119376557D01*
X155761362Y-119376569D01*
X155703005Y-119594365D01*
X155703003Y-119594371D01*
X155701605Y-119599592D01*
X155681009Y-119835000D01*
X155701605Y-120070408D01*
X155703004Y-120075630D01*
X155703005Y-120075634D01*
X155761362Y-120293430D01*
X155761365Y-120293438D01*
X155762765Y-120298663D01*
X155765053Y-120303570D01*
X155765054Y-120303572D01*
X155860346Y-120507927D01*
X155860349Y-120507933D01*
X155862633Y-120512830D01*
X155865732Y-120517257D01*
X155865734Y-120517259D01*
X155995067Y-120701966D01*
X155995070Y-120701970D01*
X155998173Y-120706401D01*
X156165267Y-120873495D01*
X156169700Y-120876599D01*
X156169706Y-120876604D01*
X156350826Y-121003425D01*
X156389692Y-121047743D01*
X156403703Y-121105000D01*
X156389692Y-121162257D01*
X156350827Y-121206575D01*
X156169709Y-121333395D01*
X156165267Y-121336505D01*
X156161443Y-121340328D01*
X156161437Y-121340334D01*
X156002002Y-121499769D01*
X156001996Y-121499775D01*
X155998173Y-121503599D01*
X155995070Y-121508029D01*
X155995067Y-121508034D01*
X155865741Y-121692731D01*
X155865736Y-121692738D01*
X155862633Y-121697171D01*
X155860345Y-121702077D01*
X155860343Y-121702081D01*
X155765054Y-121906427D01*
X155765051Y-121906432D01*
X155762765Y-121911337D01*
X155761366Y-121916557D01*
X155761362Y-121916569D01*
X155703005Y-122134365D01*
X155703003Y-122134371D01*
X155701605Y-122139592D01*
X155681009Y-122375000D01*
X155701605Y-122610408D01*
X155703004Y-122615630D01*
X155703005Y-122615634D01*
X155761362Y-122833430D01*
X155761365Y-122833438D01*
X155762765Y-122838663D01*
X155765053Y-122843570D01*
X155765054Y-122843572D01*
X155860346Y-123047927D01*
X155860349Y-123047933D01*
X155862633Y-123052830D01*
X155865732Y-123057257D01*
X155865734Y-123057259D01*
X155995067Y-123241966D01*
X155995070Y-123241970D01*
X155998173Y-123246401D01*
X156165267Y-123413495D01*
X156169700Y-123416599D01*
X156169706Y-123416604D01*
X156350826Y-123543425D01*
X156389692Y-123587743D01*
X156403703Y-123645000D01*
X156389692Y-123702257D01*
X156350827Y-123746575D01*
X156169709Y-123873395D01*
X156165267Y-123876505D01*
X156161443Y-123880328D01*
X156161437Y-123880334D01*
X156002002Y-124039769D01*
X156001996Y-124039775D01*
X155998173Y-124043599D01*
X155995070Y-124048029D01*
X155995067Y-124048034D01*
X155865741Y-124232731D01*
X155865736Y-124232738D01*
X155862633Y-124237171D01*
X155860345Y-124242077D01*
X155860343Y-124242081D01*
X155765054Y-124446427D01*
X155765051Y-124446432D01*
X155762765Y-124451337D01*
X155761366Y-124456557D01*
X155761362Y-124456569D01*
X155703005Y-124674365D01*
X155703003Y-124674371D01*
X155701605Y-124679592D01*
X155681009Y-124915000D01*
X155701605Y-125150408D01*
X155703004Y-125155630D01*
X155703005Y-125155634D01*
X155761362Y-125373430D01*
X155761365Y-125373438D01*
X155762765Y-125378663D01*
X155765053Y-125383570D01*
X155765054Y-125383572D01*
X155860346Y-125587927D01*
X155860349Y-125587933D01*
X155862633Y-125592830D01*
X155865732Y-125597257D01*
X155865734Y-125597259D01*
X155995067Y-125781966D01*
X155995070Y-125781970D01*
X155998173Y-125786401D01*
X156165267Y-125953495D01*
X156169700Y-125956599D01*
X156169706Y-125956604D01*
X156350826Y-126083425D01*
X156389692Y-126127743D01*
X156403703Y-126185000D01*
X156389692Y-126242257D01*
X156350827Y-126286575D01*
X156169709Y-126413395D01*
X156165267Y-126416505D01*
X156161443Y-126420328D01*
X156161437Y-126420334D01*
X156002002Y-126579769D01*
X156001996Y-126579775D01*
X155998173Y-126583599D01*
X155995070Y-126588029D01*
X155995067Y-126588034D01*
X155865741Y-126772731D01*
X155865736Y-126772738D01*
X155862633Y-126777171D01*
X155860345Y-126782077D01*
X155860343Y-126782081D01*
X155765054Y-126986427D01*
X155765051Y-126986432D01*
X155762765Y-126991337D01*
X155761366Y-126996557D01*
X155761362Y-126996569D01*
X155703005Y-127214365D01*
X155703003Y-127214371D01*
X155701605Y-127219592D01*
X155681009Y-127455000D01*
X155701605Y-127690408D01*
X155703004Y-127695630D01*
X155703005Y-127695634D01*
X155761362Y-127913430D01*
X155761365Y-127913438D01*
X155762765Y-127918663D01*
X155765053Y-127923570D01*
X155765054Y-127923572D01*
X155860346Y-128127927D01*
X155860349Y-128127933D01*
X155862633Y-128132830D01*
X155865732Y-128137257D01*
X155865734Y-128137259D01*
X155995067Y-128321966D01*
X155995070Y-128321970D01*
X155998173Y-128326401D01*
X156165267Y-128493495D01*
X156169700Y-128496599D01*
X156169706Y-128496604D01*
X156350826Y-128623425D01*
X156389692Y-128667743D01*
X156403703Y-128725000D01*
X156389692Y-128782257D01*
X156350827Y-128826575D01*
X156169709Y-128953395D01*
X156165267Y-128956505D01*
X156161443Y-128960328D01*
X156161437Y-128960334D01*
X156002002Y-129119769D01*
X156001996Y-129119775D01*
X155998173Y-129123599D01*
X155995070Y-129128029D01*
X155995067Y-129128034D01*
X155865741Y-129312731D01*
X155865736Y-129312738D01*
X155862633Y-129317171D01*
X155860345Y-129322077D01*
X155860343Y-129322081D01*
X155765054Y-129526427D01*
X155765051Y-129526432D01*
X155762765Y-129531337D01*
X155761366Y-129536557D01*
X155761362Y-129536569D01*
X155703005Y-129754365D01*
X155703003Y-129754371D01*
X155701605Y-129759592D01*
X155681009Y-129995000D01*
X155701605Y-130230408D01*
X155703004Y-130235630D01*
X155703005Y-130235634D01*
X155761362Y-130453430D01*
X155761365Y-130453438D01*
X155762765Y-130458663D01*
X155765053Y-130463570D01*
X155765054Y-130463572D01*
X155860346Y-130667927D01*
X155860349Y-130667933D01*
X155862633Y-130672830D01*
X155865732Y-130677257D01*
X155865734Y-130677259D01*
X155995067Y-130861966D01*
X155995070Y-130861970D01*
X155998173Y-130866401D01*
X156165267Y-131033495D01*
X156169700Y-131036599D01*
X156169706Y-131036604D01*
X156350826Y-131163425D01*
X156389692Y-131207743D01*
X156403703Y-131265000D01*
X156389692Y-131322257D01*
X156350828Y-131366574D01*
X156165267Y-131496505D01*
X156161443Y-131500328D01*
X156161437Y-131500334D01*
X156002002Y-131659769D01*
X156001996Y-131659775D01*
X155998173Y-131663599D01*
X155995070Y-131668029D01*
X155995067Y-131668034D01*
X155865741Y-131852731D01*
X155865736Y-131852738D01*
X155862633Y-131857171D01*
X155860345Y-131862077D01*
X155860343Y-131862081D01*
X155765054Y-132066427D01*
X155765051Y-132066432D01*
X155762765Y-132071337D01*
X155761366Y-132076557D01*
X155761362Y-132076569D01*
X155703005Y-132294365D01*
X155703003Y-132294371D01*
X155701605Y-132299592D01*
X155681009Y-132535000D01*
X155701605Y-132770408D01*
X155703004Y-132775630D01*
X155703005Y-132775634D01*
X155761362Y-132993430D01*
X155761365Y-132993438D01*
X155762765Y-132998663D01*
X155765053Y-133003570D01*
X155765054Y-133003572D01*
X155860346Y-133207927D01*
X155860349Y-133207933D01*
X155862633Y-133212830D01*
X155865732Y-133217257D01*
X155865734Y-133217259D01*
X155995067Y-133401966D01*
X155995070Y-133401970D01*
X155998173Y-133406401D01*
X156165267Y-133573495D01*
X156169700Y-133576599D01*
X156169706Y-133576604D01*
X156350826Y-133703425D01*
X156389692Y-133747743D01*
X156403703Y-133805000D01*
X156389692Y-133862257D01*
X156350827Y-133906575D01*
X156169709Y-134033395D01*
X156165267Y-134036505D01*
X156161443Y-134040328D01*
X156161437Y-134040334D01*
X156002002Y-134199769D01*
X156001996Y-134199775D01*
X155998173Y-134203599D01*
X155995070Y-134208029D01*
X155995067Y-134208034D01*
X155865741Y-134392731D01*
X155865736Y-134392738D01*
X155862633Y-134397171D01*
X155860345Y-134402077D01*
X155860343Y-134402081D01*
X155765054Y-134606427D01*
X155765051Y-134606432D01*
X155762765Y-134611337D01*
X155761366Y-134616557D01*
X155761362Y-134616569D01*
X155703005Y-134834365D01*
X155703003Y-134834371D01*
X155701605Y-134839592D01*
X155701133Y-134844977D01*
X155701133Y-134844982D01*
X155687731Y-134998165D01*
X155681009Y-135075000D01*
X135542327Y-135075000D01*
X135521731Y-134839592D01*
X135460571Y-134611337D01*
X135360703Y-134397171D01*
X135225163Y-134203599D01*
X135058069Y-134036505D01*
X135053638Y-134033402D01*
X135053634Y-134033399D01*
X134872073Y-133906269D01*
X134833208Y-133861951D01*
X134819197Y-133804694D01*
X134833208Y-133747437D01*
X134872074Y-133703119D01*
X135053306Y-133576219D01*
X135061577Y-133569278D01*
X135220946Y-133409909D01*
X135227883Y-133401643D01*
X135357166Y-133217008D01*
X135362554Y-133207676D01*
X135457811Y-133003397D01*
X135461499Y-132993263D01*
X135513611Y-132798780D01*
X135513979Y-132787551D01*
X135503037Y-132785000D01*
X132870299Y-132785000D01*
X132859356Y-132787551D01*
X132859724Y-132798780D01*
X132911836Y-132993263D01*
X132915524Y-133003397D01*
X133010781Y-133207676D01*
X133016169Y-133217008D01*
X133145452Y-133401643D01*
X133152389Y-133409909D01*
X133311758Y-133569278D01*
X133320024Y-133576215D01*
X133501263Y-133703120D01*
X133540128Y-133747438D01*
X133554139Y-133804695D01*
X133540128Y-133861952D01*
X133501262Y-133906270D01*
X133319702Y-134033399D01*
X133319697Y-134033402D01*
X133315267Y-134036505D01*
X133311443Y-134040328D01*
X133311437Y-134040334D01*
X133152002Y-134199769D01*
X133151996Y-134199775D01*
X133148173Y-134203599D01*
X133145070Y-134208029D01*
X133145067Y-134208034D01*
X133015741Y-134392731D01*
X133015736Y-134392738D01*
X133012633Y-134397171D01*
X133010345Y-134402077D01*
X133010343Y-134402081D01*
X132915054Y-134606427D01*
X132915051Y-134606432D01*
X132912765Y-134611337D01*
X132911366Y-134616557D01*
X132911362Y-134616569D01*
X132853005Y-134834365D01*
X132853003Y-134834371D01*
X132851605Y-134839592D01*
X132851133Y-134844977D01*
X132851133Y-134844982D01*
X132837731Y-134998165D01*
X132831009Y-135075000D01*
X101632023Y-135075000D01*
X101730571Y-134863663D01*
X101791731Y-134635408D01*
X101812327Y-134400000D01*
X101791731Y-134164592D01*
X101730571Y-133936337D01*
X101630703Y-133722171D01*
X101495163Y-133528599D01*
X101328069Y-133361505D01*
X101134497Y-133225965D01*
X100920331Y-133126097D01*
X100915106Y-133124697D01*
X100915098Y-133124694D01*
X100697302Y-133066337D01*
X100697298Y-133066336D01*
X100692076Y-133064937D01*
X100686688Y-133064465D01*
X100686685Y-133064465D01*
X100518332Y-133049736D01*
X100518330Y-133049735D01*
X100515634Y-133049500D01*
X100397702Y-133049500D01*
X100395006Y-133049735D01*
X100395003Y-133049736D01*
X100226650Y-133064465D01*
X100226645Y-133064465D01*
X100221260Y-133064937D01*
X100216039Y-133066335D01*
X100216033Y-133066337D01*
X99998237Y-133124694D01*
X99998225Y-133124698D01*
X99993005Y-133126097D01*
X99988100Y-133128383D01*
X99988095Y-133128386D01*
X99783749Y-133223675D01*
X99783745Y-133223677D01*
X99778839Y-133225965D01*
X99774406Y-133229068D01*
X99774399Y-133229073D01*
X99589702Y-133358399D01*
X99589697Y-133358402D01*
X99585267Y-133361505D01*
X99581443Y-133365328D01*
X99581437Y-133365334D01*
X99422004Y-133524767D01*
X99421998Y-133524773D01*
X99418173Y-133528599D01*
X99415074Y-133533023D01*
X99415067Y-133533033D01*
X99285734Y-133717740D01*
X99285729Y-133717747D01*
X99282633Y-133722170D01*
X99280351Y-133727061D01*
X99280346Y-133727072D01*
X99185054Y-133931427D01*
X99185051Y-133931432D01*
X99182765Y-133936337D01*
X99181366Y-133941557D01*
X99181362Y-133941569D01*
X99123005Y-134159365D01*
X99123003Y-134159371D01*
X99121605Y-134164592D01*
X99101009Y-134400000D01*
X98056668Y-134400000D01*
X98056668Y-129995000D01*
X132831009Y-129995000D01*
X132851605Y-130230408D01*
X132853004Y-130235630D01*
X132853005Y-130235634D01*
X132911362Y-130453430D01*
X132911365Y-130453438D01*
X132912765Y-130458663D01*
X132915053Y-130463570D01*
X132915054Y-130463572D01*
X133010346Y-130667927D01*
X133010349Y-130667933D01*
X133012633Y-130672830D01*
X133015732Y-130677257D01*
X133015734Y-130677259D01*
X133145067Y-130861966D01*
X133145070Y-130861970D01*
X133148173Y-130866401D01*
X133315267Y-131033495D01*
X133319699Y-131036598D01*
X133319701Y-131036600D01*
X133501263Y-131163731D01*
X133540128Y-131208049D01*
X133554139Y-131265306D01*
X133540128Y-131322563D01*
X133501263Y-131366881D01*
X133320020Y-131493788D01*
X133311760Y-131500719D01*
X133152387Y-131660092D01*
X133145452Y-131668357D01*
X133016176Y-131852982D01*
X133010778Y-131862332D01*
X132915524Y-132066602D01*
X132911836Y-132076736D01*
X132859724Y-132271219D01*
X132859356Y-132282448D01*
X132870299Y-132285000D01*
X135503037Y-132285000D01*
X135513979Y-132282448D01*
X135513611Y-132271219D01*
X135461499Y-132076736D01*
X135457811Y-132066602D01*
X135362557Y-131862332D01*
X135357159Y-131852982D01*
X135227883Y-131668357D01*
X135220948Y-131660092D01*
X135061577Y-131500721D01*
X135053311Y-131493784D01*
X134872073Y-131366880D01*
X134833208Y-131322562D01*
X134819197Y-131265305D01*
X134833208Y-131208048D01*
X134872074Y-131163730D01*
X135053629Y-131036604D01*
X135053629Y-131036603D01*
X135058069Y-131033495D01*
X135225163Y-130866401D01*
X135360703Y-130672830D01*
X135460571Y-130458663D01*
X135521731Y-130230408D01*
X135542327Y-129995000D01*
X135521731Y-129759592D01*
X135460571Y-129531337D01*
X135360703Y-129317171D01*
X135225163Y-129123599D01*
X135058069Y-128956505D01*
X135053636Y-128953401D01*
X135053629Y-128953395D01*
X134872510Y-128826575D01*
X134833644Y-128782257D01*
X134819633Y-128725000D01*
X134833644Y-128667743D01*
X134872510Y-128623425D01*
X135053629Y-128496604D01*
X135053629Y-128496603D01*
X135058069Y-128493495D01*
X135225163Y-128326401D01*
X135360703Y-128132830D01*
X135460571Y-127918663D01*
X135521731Y-127690408D01*
X135542327Y-127455000D01*
X135521731Y-127219592D01*
X135460571Y-126991337D01*
X135360703Y-126777171D01*
X135225163Y-126583599D01*
X135058069Y-126416505D01*
X135053636Y-126413401D01*
X135053629Y-126413395D01*
X134872510Y-126286575D01*
X134833644Y-126242257D01*
X134819633Y-126185000D01*
X134833644Y-126127743D01*
X134872510Y-126083425D01*
X135053629Y-125956604D01*
X135053629Y-125956603D01*
X135058069Y-125953495D01*
X135225163Y-125786401D01*
X135360703Y-125592830D01*
X135460571Y-125378663D01*
X135521731Y-125150408D01*
X135542327Y-124915000D01*
X135521731Y-124679592D01*
X135460571Y-124451337D01*
X135360703Y-124237171D01*
X135225163Y-124043599D01*
X135058069Y-123876505D01*
X135053636Y-123873401D01*
X135053629Y-123873395D01*
X134872510Y-123746575D01*
X134833644Y-123702257D01*
X134819633Y-123645000D01*
X134833644Y-123587743D01*
X134872510Y-123543425D01*
X135053629Y-123416604D01*
X135053629Y-123416603D01*
X135058069Y-123413495D01*
X135225163Y-123246401D01*
X135360703Y-123052830D01*
X135460571Y-122838663D01*
X135521731Y-122610408D01*
X135542327Y-122375000D01*
X135521731Y-122139592D01*
X135460571Y-121911337D01*
X135360703Y-121697171D01*
X135225163Y-121503599D01*
X135058069Y-121336505D01*
X135053636Y-121333401D01*
X135053629Y-121333395D01*
X134872510Y-121206575D01*
X134833644Y-121162257D01*
X134819633Y-121105000D01*
X134833644Y-121047743D01*
X134872510Y-121003425D01*
X135053629Y-120876604D01*
X135053629Y-120876603D01*
X135058069Y-120873495D01*
X135225163Y-120706401D01*
X135360703Y-120512830D01*
X135460571Y-120298663D01*
X135521731Y-120070408D01*
X135542327Y-119835000D01*
X135521731Y-119599592D01*
X135460571Y-119371337D01*
X135360703Y-119157171D01*
X135225163Y-118963599D01*
X135058069Y-118796505D01*
X135053638Y-118793402D01*
X135053634Y-118793399D01*
X134868927Y-118664066D01*
X134868925Y-118664064D01*
X134864498Y-118660965D01*
X134859601Y-118658681D01*
X134859595Y-118658678D01*
X134655240Y-118563386D01*
X134655238Y-118563385D01*
X134650331Y-118561097D01*
X134645106Y-118559697D01*
X134645098Y-118559694D01*
X134427302Y-118501337D01*
X134427298Y-118501336D01*
X134422076Y-118499937D01*
X134416688Y-118499465D01*
X134416685Y-118499465D01*
X134192063Y-118479813D01*
X134186668Y-118479341D01*
X134181273Y-118479813D01*
X133956650Y-118499465D01*
X133956645Y-118499465D01*
X133951260Y-118499937D01*
X133946039Y-118501335D01*
X133946033Y-118501337D01*
X133728237Y-118559694D01*
X133728225Y-118559698D01*
X133723005Y-118561097D01*
X133718100Y-118563383D01*
X133718095Y-118563386D01*
X133513749Y-118658675D01*
X133513745Y-118658677D01*
X133508839Y-118660965D01*
X133504406Y-118664068D01*
X133504399Y-118664073D01*
X133319702Y-118793399D01*
X133319697Y-118793402D01*
X133315267Y-118796505D01*
X133311443Y-118800328D01*
X133311437Y-118800334D01*
X133152002Y-118959769D01*
X133151996Y-118959775D01*
X133148173Y-118963599D01*
X133145070Y-118968029D01*
X133145067Y-118968034D01*
X133015741Y-119152731D01*
X133015736Y-119152738D01*
X133012633Y-119157171D01*
X133010345Y-119162077D01*
X133010343Y-119162081D01*
X132915054Y-119366427D01*
X132915051Y-119366432D01*
X132912765Y-119371337D01*
X132911366Y-119376557D01*
X132911362Y-119376569D01*
X132853005Y-119594365D01*
X132853003Y-119594371D01*
X132851605Y-119599592D01*
X132831009Y-119835000D01*
X132851605Y-120070408D01*
X132853004Y-120075630D01*
X132853005Y-120075634D01*
X132911362Y-120293430D01*
X132911365Y-120293438D01*
X132912765Y-120298663D01*
X132915053Y-120303570D01*
X132915054Y-120303572D01*
X133010346Y-120507927D01*
X133010349Y-120507933D01*
X133012633Y-120512830D01*
X133015732Y-120517257D01*
X133015734Y-120517259D01*
X133145067Y-120701966D01*
X133145070Y-120701970D01*
X133148173Y-120706401D01*
X133315267Y-120873495D01*
X133319700Y-120876599D01*
X133319706Y-120876604D01*
X133500826Y-121003425D01*
X133539692Y-121047743D01*
X133553703Y-121105000D01*
X133539692Y-121162257D01*
X133500827Y-121206575D01*
X133319709Y-121333395D01*
X133315267Y-121336505D01*
X133311443Y-121340328D01*
X133311437Y-121340334D01*
X133152002Y-121499769D01*
X133151996Y-121499775D01*
X133148173Y-121503599D01*
X133145070Y-121508029D01*
X133145067Y-121508034D01*
X133015741Y-121692731D01*
X133015736Y-121692738D01*
X133012633Y-121697171D01*
X133010345Y-121702077D01*
X133010343Y-121702081D01*
X132915054Y-121906427D01*
X132915051Y-121906432D01*
X132912765Y-121911337D01*
X132911366Y-121916557D01*
X132911362Y-121916569D01*
X132853005Y-122134365D01*
X132853003Y-122134371D01*
X132851605Y-122139592D01*
X132831009Y-122375000D01*
X132851605Y-122610408D01*
X132853004Y-122615630D01*
X132853005Y-122615634D01*
X132911362Y-122833430D01*
X132911365Y-122833438D01*
X132912765Y-122838663D01*
X132915053Y-122843570D01*
X132915054Y-122843572D01*
X133010346Y-123047927D01*
X133010349Y-123047933D01*
X133012633Y-123052830D01*
X133015732Y-123057257D01*
X133015734Y-123057259D01*
X133145067Y-123241966D01*
X133145070Y-123241970D01*
X133148173Y-123246401D01*
X133315267Y-123413495D01*
X133319700Y-123416599D01*
X133319706Y-123416604D01*
X133500826Y-123543425D01*
X133539692Y-123587743D01*
X133553703Y-123645000D01*
X133539692Y-123702257D01*
X133500827Y-123746575D01*
X133319709Y-123873395D01*
X133315267Y-123876505D01*
X133311443Y-123880328D01*
X133311437Y-123880334D01*
X133152002Y-124039769D01*
X133151996Y-124039775D01*
X133148173Y-124043599D01*
X133145070Y-124048029D01*
X133145067Y-124048034D01*
X133015741Y-124232731D01*
X133015736Y-124232738D01*
X133012633Y-124237171D01*
X133010345Y-124242077D01*
X133010343Y-124242081D01*
X132915054Y-124446427D01*
X132915051Y-124446432D01*
X132912765Y-124451337D01*
X132911366Y-124456557D01*
X132911362Y-124456569D01*
X132853005Y-124674365D01*
X132853003Y-124674371D01*
X132851605Y-124679592D01*
X132831009Y-124915000D01*
X132851605Y-125150408D01*
X132853004Y-125155630D01*
X132853005Y-125155634D01*
X132911362Y-125373430D01*
X132911365Y-125373438D01*
X132912765Y-125378663D01*
X132915053Y-125383570D01*
X132915054Y-125383572D01*
X133010346Y-125587927D01*
X133010349Y-125587933D01*
X133012633Y-125592830D01*
X133015732Y-125597257D01*
X133015734Y-125597259D01*
X133145067Y-125781966D01*
X133145070Y-125781970D01*
X133148173Y-125786401D01*
X133315267Y-125953495D01*
X133319700Y-125956599D01*
X133319706Y-125956604D01*
X133500826Y-126083425D01*
X133539692Y-126127743D01*
X133553703Y-126185000D01*
X133539692Y-126242257D01*
X133500827Y-126286575D01*
X133319709Y-126413395D01*
X133315267Y-126416505D01*
X133311443Y-126420328D01*
X133311437Y-126420334D01*
X133152002Y-126579769D01*
X133151996Y-126579775D01*
X133148173Y-126583599D01*
X133145070Y-126588029D01*
X133145067Y-126588034D01*
X133015741Y-126772731D01*
X133015736Y-126772738D01*
X133012633Y-126777171D01*
X133010345Y-126782077D01*
X133010343Y-126782081D01*
X132915054Y-126986427D01*
X132915051Y-126986432D01*
X132912765Y-126991337D01*
X132911366Y-126996557D01*
X132911362Y-126996569D01*
X132853005Y-127214365D01*
X132853003Y-127214371D01*
X132851605Y-127219592D01*
X132831009Y-127455000D01*
X132851605Y-127690408D01*
X132853004Y-127695630D01*
X132853005Y-127695634D01*
X132911362Y-127913430D01*
X132911365Y-127913438D01*
X132912765Y-127918663D01*
X132915053Y-127923570D01*
X132915054Y-127923572D01*
X133010346Y-128127927D01*
X133010349Y-128127933D01*
X133012633Y-128132830D01*
X133015732Y-128137257D01*
X133015734Y-128137259D01*
X133145067Y-128321966D01*
X133145070Y-128321970D01*
X133148173Y-128326401D01*
X133315267Y-128493495D01*
X133319700Y-128496599D01*
X133319706Y-128496604D01*
X133500826Y-128623425D01*
X133539692Y-128667743D01*
X133553703Y-128725000D01*
X133539692Y-128782257D01*
X133500827Y-128826575D01*
X133319709Y-128953395D01*
X133315267Y-128956505D01*
X133311443Y-128960328D01*
X133311437Y-128960334D01*
X133152002Y-129119769D01*
X133151996Y-129119775D01*
X133148173Y-129123599D01*
X133145070Y-129128029D01*
X133145067Y-129128034D01*
X133015741Y-129312731D01*
X133015736Y-129312738D01*
X133012633Y-129317171D01*
X133010345Y-129322077D01*
X133010343Y-129322081D01*
X132915054Y-129526427D01*
X132915051Y-129526432D01*
X132912765Y-129531337D01*
X132911366Y-129536557D01*
X132911362Y-129536569D01*
X132853005Y-129754365D01*
X132853003Y-129754371D01*
X132851605Y-129759592D01*
X132831009Y-129995000D01*
X98056668Y-129995000D01*
X98056668Y-85500000D01*
X103581058Y-85500000D01*
X103581374Y-85504418D01*
X103601155Y-85781005D01*
X103601156Y-85781014D01*
X103601472Y-85785428D01*
X103602412Y-85789753D01*
X103602414Y-85789761D01*
X103655779Y-86035075D01*
X103662299Y-86065046D01*
X103762301Y-86333161D01*
X103764421Y-86337043D01*
X103764424Y-86337050D01*
X103897315Y-86580420D01*
X103899442Y-86584315D01*
X104070929Y-86813395D01*
X104273273Y-87015739D01*
X104502353Y-87187226D01*
X104753507Y-87324367D01*
X105021622Y-87424369D01*
X105301240Y-87485196D01*
X105586668Y-87505610D01*
X105872096Y-87485196D01*
X106151714Y-87424369D01*
X106419829Y-87324367D01*
X106670983Y-87187226D01*
X106900063Y-87015739D01*
X107102407Y-86813395D01*
X107273894Y-86584315D01*
X107411035Y-86333161D01*
X107511037Y-86065046D01*
X107571864Y-85785428D01*
X107592278Y-85500000D01*
X119881058Y-85500000D01*
X119881374Y-85504418D01*
X119901155Y-85781005D01*
X119901156Y-85781014D01*
X119901472Y-85785428D01*
X119902412Y-85789753D01*
X119902414Y-85789761D01*
X119955779Y-86035075D01*
X119962299Y-86065046D01*
X120062301Y-86333161D01*
X120064421Y-86337043D01*
X120064424Y-86337050D01*
X120197315Y-86580420D01*
X120199442Y-86584315D01*
X120370929Y-86813395D01*
X120573273Y-87015739D01*
X120802353Y-87187226D01*
X121053507Y-87324367D01*
X121321622Y-87424369D01*
X121601240Y-87485196D01*
X121886668Y-87505610D01*
X122172096Y-87485196D01*
X122451714Y-87424369D01*
X122719829Y-87324367D01*
X122970983Y-87187226D01*
X123200063Y-87015739D01*
X123402407Y-86813395D01*
X123573894Y-86584315D01*
X123711035Y-86333161D01*
X123811037Y-86065046D01*
X123871864Y-85785428D01*
X123892278Y-85500000D01*
X124777724Y-85500000D01*
X124778040Y-85504418D01*
X124797821Y-85781005D01*
X124797822Y-85781014D01*
X124798138Y-85785428D01*
X124799078Y-85789753D01*
X124799080Y-85789761D01*
X124852445Y-86035075D01*
X124858965Y-86065046D01*
X124958967Y-86333161D01*
X124961087Y-86337043D01*
X124961090Y-86337050D01*
X125093981Y-86580420D01*
X125096108Y-86584315D01*
X125267595Y-86813395D01*
X125469939Y-87015739D01*
X125699019Y-87187226D01*
X125950173Y-87324367D01*
X126218288Y-87424369D01*
X126497906Y-87485196D01*
X126783334Y-87505610D01*
X127068762Y-87485196D01*
X127348380Y-87424369D01*
X127616495Y-87324367D01*
X127867649Y-87187226D01*
X128096729Y-87015739D01*
X128299073Y-86813395D01*
X128470560Y-86584315D01*
X128607701Y-86333161D01*
X128707703Y-86065046D01*
X128768530Y-85785428D01*
X128788944Y-85500000D01*
X141077724Y-85500000D01*
X141078040Y-85504418D01*
X141097821Y-85781005D01*
X141097822Y-85781014D01*
X141098138Y-85785428D01*
X141099078Y-85789753D01*
X141099080Y-85789761D01*
X141152445Y-86035075D01*
X141158965Y-86065046D01*
X141258967Y-86333161D01*
X141261087Y-86337043D01*
X141261090Y-86337050D01*
X141393981Y-86580420D01*
X141396108Y-86584315D01*
X141567595Y-86813395D01*
X141769939Y-87015739D01*
X141999019Y-87187226D01*
X142250173Y-87324367D01*
X142518288Y-87424369D01*
X142797906Y-87485196D01*
X143083334Y-87505610D01*
X143368762Y-87485196D01*
X143648380Y-87424369D01*
X143916495Y-87324367D01*
X144167649Y-87187226D01*
X144396729Y-87015739D01*
X144599073Y-86813395D01*
X144770560Y-86584315D01*
X144907701Y-86333161D01*
X145007703Y-86065046D01*
X145068530Y-85785428D01*
X145088944Y-85500000D01*
X145944390Y-85500000D01*
X145944706Y-85504418D01*
X145964487Y-85781005D01*
X145964488Y-85781014D01*
X145964804Y-85785428D01*
X145965744Y-85789753D01*
X145965746Y-85789761D01*
X146019111Y-86035075D01*
X146025631Y-86065046D01*
X146125633Y-86333161D01*
X146127753Y-86337043D01*
X146127756Y-86337050D01*
X146260647Y-86580420D01*
X146262774Y-86584315D01*
X146434261Y-86813395D01*
X146636605Y-87015739D01*
X146865685Y-87187226D01*
X147116839Y-87324367D01*
X147384954Y-87424369D01*
X147664572Y-87485196D01*
X147950000Y-87505610D01*
X148235428Y-87485196D01*
X148515046Y-87424369D01*
X148783161Y-87324367D01*
X149034315Y-87187226D01*
X149263395Y-87015739D01*
X149465739Y-86813395D01*
X149637226Y-86584315D01*
X149774367Y-86333161D01*
X149874369Y-86065046D01*
X149935196Y-85785428D01*
X149955610Y-85500000D01*
X162244390Y-85500000D01*
X162244706Y-85504418D01*
X162264487Y-85781005D01*
X162264488Y-85781014D01*
X162264804Y-85785428D01*
X162265744Y-85789753D01*
X162265746Y-85789761D01*
X162319111Y-86035075D01*
X162325631Y-86065046D01*
X162425633Y-86333161D01*
X162427753Y-86337043D01*
X162427756Y-86337050D01*
X162560647Y-86580420D01*
X162562774Y-86584315D01*
X162734261Y-86813395D01*
X162936605Y-87015739D01*
X163165685Y-87187226D01*
X163416839Y-87324367D01*
X163684954Y-87424369D01*
X163964572Y-87485196D01*
X164250000Y-87505610D01*
X164535428Y-87485196D01*
X164815046Y-87424369D01*
X165083161Y-87324367D01*
X165334315Y-87187226D01*
X165563395Y-87015739D01*
X165765739Y-86813395D01*
X165937226Y-86584315D01*
X166074367Y-86333161D01*
X166174369Y-86065046D01*
X166235196Y-85785428D01*
X166255610Y-85500000D01*
X167111058Y-85500000D01*
X167111374Y-85504418D01*
X167131155Y-85781005D01*
X167131156Y-85781014D01*
X167131472Y-85785428D01*
X167132412Y-85789753D01*
X167132414Y-85789761D01*
X167185779Y-86035075D01*
X167192299Y-86065046D01*
X167292301Y-86333161D01*
X167294421Y-86337043D01*
X167294424Y-86337050D01*
X167427315Y-86580420D01*
X167429442Y-86584315D01*
X167600929Y-86813395D01*
X167803273Y-87015739D01*
X168032353Y-87187226D01*
X168283507Y-87324367D01*
X168551622Y-87424369D01*
X168831240Y-87485196D01*
X169116668Y-87505610D01*
X169402096Y-87485196D01*
X169681714Y-87424369D01*
X169949829Y-87324367D01*
X170200983Y-87187226D01*
X170430063Y-87015739D01*
X170632407Y-86813395D01*
X170803894Y-86584315D01*
X170941035Y-86333161D01*
X171041037Y-86065046D01*
X171101864Y-85785428D01*
X171122278Y-85500000D01*
X183411058Y-85500000D01*
X183411374Y-85504418D01*
X183431155Y-85781005D01*
X183431156Y-85781014D01*
X183431472Y-85785428D01*
X183432412Y-85789753D01*
X183432414Y-85789761D01*
X183485779Y-86035075D01*
X183492299Y-86065046D01*
X183592301Y-86333161D01*
X183594421Y-86337043D01*
X183594424Y-86337050D01*
X183727315Y-86580420D01*
X183729442Y-86584315D01*
X183900929Y-86813395D01*
X184103273Y-87015739D01*
X184332353Y-87187226D01*
X184583507Y-87324367D01*
X184851622Y-87424369D01*
X185131240Y-87485196D01*
X185416668Y-87505610D01*
X185702096Y-87485196D01*
X185981714Y-87424369D01*
X186249829Y-87324367D01*
X186500983Y-87187226D01*
X186730063Y-87015739D01*
X186932407Y-86813395D01*
X187103894Y-86584315D01*
X187241035Y-86333161D01*
X187341037Y-86065046D01*
X187401864Y-85785428D01*
X187422278Y-85500000D01*
X187401864Y-85214572D01*
X187341037Y-84934954D01*
X187241035Y-84666839D01*
X187103894Y-84415685D01*
X186932407Y-84186605D01*
X186730063Y-83984261D01*
X186500983Y-83812774D01*
X186497088Y-83810647D01*
X186253718Y-83677756D01*
X186253711Y-83677753D01*
X186249829Y-83675633D01*
X186245685Y-83674087D01*
X186245680Y-83674085D01*
X185985857Y-83577176D01*
X185985853Y-83577175D01*
X185981714Y-83575631D01*
X185951743Y-83569111D01*
X185706429Y-83515746D01*
X185706421Y-83515744D01*
X185702096Y-83514804D01*
X185697682Y-83514488D01*
X185697673Y-83514487D01*
X185421086Y-83494706D01*
X185416668Y-83494390D01*
X185412250Y-83494706D01*
X185135662Y-83514487D01*
X185135651Y-83514488D01*
X185131240Y-83514804D01*
X185126916Y-83515744D01*
X185126906Y-83515746D01*
X184855947Y-83574690D01*
X184855944Y-83574690D01*
X184851622Y-83575631D01*
X184847486Y-83577173D01*
X184847478Y-83577176D01*
X184587655Y-83674085D01*
X184587644Y-83674089D01*
X184583507Y-83675633D01*
X184579629Y-83677750D01*
X184579617Y-83677756D01*
X184336247Y-83810647D01*
X184336239Y-83810651D01*
X184332353Y-83812774D01*
X184328803Y-83815431D01*
X184328799Y-83815434D01*
X184106824Y-83981602D01*
X184106817Y-83981607D01*
X184103273Y-83984261D01*
X184100142Y-83987391D01*
X184100135Y-83987398D01*
X183904066Y-84183467D01*
X183904059Y-84183474D01*
X183900929Y-84186605D01*
X183898275Y-84190149D01*
X183898270Y-84190156D01*
X183732102Y-84412131D01*
X183729442Y-84415685D01*
X183727319Y-84419571D01*
X183727315Y-84419579D01*
X183594424Y-84662949D01*
X183594418Y-84662961D01*
X183592301Y-84666839D01*
X183590757Y-84670976D01*
X183590753Y-84670987D01*
X183493844Y-84930810D01*
X183493841Y-84930818D01*
X183492299Y-84934954D01*
X183491358Y-84939276D01*
X183491358Y-84939279D01*
X183432414Y-85210238D01*
X183432412Y-85210248D01*
X183431472Y-85214572D01*
X183431156Y-85218983D01*
X183431155Y-85218994D01*
X183411940Y-85487654D01*
X183411058Y-85500000D01*
X171122278Y-85500000D01*
X171101864Y-85214572D01*
X171041037Y-84934954D01*
X170941035Y-84666839D01*
X170803894Y-84415685D01*
X170632407Y-84186605D01*
X170430063Y-83984261D01*
X170200983Y-83812774D01*
X170197088Y-83810647D01*
X169953718Y-83677756D01*
X169953711Y-83677753D01*
X169949829Y-83675633D01*
X169945685Y-83674087D01*
X169945680Y-83674085D01*
X169685857Y-83577176D01*
X169685853Y-83577175D01*
X169681714Y-83575631D01*
X169651743Y-83569111D01*
X169406429Y-83515746D01*
X169406421Y-83515744D01*
X169402096Y-83514804D01*
X169397682Y-83514488D01*
X169397673Y-83514487D01*
X169121086Y-83494706D01*
X169116668Y-83494390D01*
X169112250Y-83494706D01*
X168835662Y-83514487D01*
X168835651Y-83514488D01*
X168831240Y-83514804D01*
X168826916Y-83515744D01*
X168826906Y-83515746D01*
X168555947Y-83574690D01*
X168555944Y-83574690D01*
X168551622Y-83575631D01*
X168547486Y-83577173D01*
X168547478Y-83577176D01*
X168287655Y-83674085D01*
X168287644Y-83674089D01*
X168283507Y-83675633D01*
X168279629Y-83677750D01*
X168279617Y-83677756D01*
X168036247Y-83810647D01*
X168036239Y-83810651D01*
X168032353Y-83812774D01*
X168028803Y-83815431D01*
X168028799Y-83815434D01*
X167806824Y-83981602D01*
X167806817Y-83981607D01*
X167803273Y-83984261D01*
X167800142Y-83987391D01*
X167800135Y-83987398D01*
X167604066Y-84183467D01*
X167604059Y-84183474D01*
X167600929Y-84186605D01*
X167598275Y-84190149D01*
X167598270Y-84190156D01*
X167432102Y-84412131D01*
X167429442Y-84415685D01*
X167427319Y-84419571D01*
X167427315Y-84419579D01*
X167294424Y-84662949D01*
X167294418Y-84662961D01*
X167292301Y-84666839D01*
X167290757Y-84670976D01*
X167290753Y-84670987D01*
X167193844Y-84930810D01*
X167193841Y-84930818D01*
X167192299Y-84934954D01*
X167191358Y-84939276D01*
X167191358Y-84939279D01*
X167132414Y-85210238D01*
X167132412Y-85210248D01*
X167131472Y-85214572D01*
X167131156Y-85218983D01*
X167131155Y-85218994D01*
X167111940Y-85487654D01*
X167111058Y-85500000D01*
X166255610Y-85500000D01*
X166235196Y-85214572D01*
X166174369Y-84934954D01*
X166074367Y-84666839D01*
X165937226Y-84415685D01*
X165765739Y-84186605D01*
X165563395Y-83984261D01*
X165334315Y-83812774D01*
X165330420Y-83810647D01*
X165087050Y-83677756D01*
X165087043Y-83677753D01*
X165083161Y-83675633D01*
X165079017Y-83674087D01*
X165079012Y-83674085D01*
X164819189Y-83577176D01*
X164819185Y-83577175D01*
X164815046Y-83575631D01*
X164785075Y-83569111D01*
X164539761Y-83515746D01*
X164539753Y-83515744D01*
X164535428Y-83514804D01*
X164531014Y-83514488D01*
X164531005Y-83514487D01*
X164254418Y-83494706D01*
X164250000Y-83494390D01*
X164245582Y-83494706D01*
X163968994Y-83514487D01*
X163968983Y-83514488D01*
X163964572Y-83514804D01*
X163960248Y-83515744D01*
X163960238Y-83515746D01*
X163689279Y-83574690D01*
X163689276Y-83574690D01*
X163684954Y-83575631D01*
X163680818Y-83577173D01*
X163680810Y-83577176D01*
X163420987Y-83674085D01*
X163420976Y-83674089D01*
X163416839Y-83675633D01*
X163412961Y-83677750D01*
X163412949Y-83677756D01*
X163169579Y-83810647D01*
X163169571Y-83810651D01*
X163165685Y-83812774D01*
X163162135Y-83815431D01*
X163162131Y-83815434D01*
X162940156Y-83981602D01*
X162940149Y-83981607D01*
X162936605Y-83984261D01*
X162933474Y-83987391D01*
X162933467Y-83987398D01*
X162737398Y-84183467D01*
X162737391Y-84183474D01*
X162734261Y-84186605D01*
X162731607Y-84190149D01*
X162731602Y-84190156D01*
X162565434Y-84412131D01*
X162562774Y-84415685D01*
X162560651Y-84419571D01*
X162560647Y-84419579D01*
X162427756Y-84662949D01*
X162427750Y-84662961D01*
X162425633Y-84666839D01*
X162424089Y-84670976D01*
X162424085Y-84670987D01*
X162327176Y-84930810D01*
X162327173Y-84930818D01*
X162325631Y-84934954D01*
X162324690Y-84939276D01*
X162324690Y-84939279D01*
X162265746Y-85210238D01*
X162265744Y-85210248D01*
X162264804Y-85214572D01*
X162264488Y-85218983D01*
X162264487Y-85218994D01*
X162245272Y-85487654D01*
X162244390Y-85500000D01*
X149955610Y-85500000D01*
X149935196Y-85214572D01*
X149874369Y-84934954D01*
X149774367Y-84666839D01*
X149637226Y-84415685D01*
X149465739Y-84186605D01*
X149263395Y-83984261D01*
X149034315Y-83812774D01*
X149030420Y-83810647D01*
X148787050Y-83677756D01*
X148787043Y-83677753D01*
X148783161Y-83675633D01*
X148779017Y-83674087D01*
X148779012Y-83674085D01*
X148519189Y-83577176D01*
X148519185Y-83577175D01*
X148515046Y-83575631D01*
X148485075Y-83569111D01*
X148239761Y-83515746D01*
X148239753Y-83515744D01*
X148235428Y-83514804D01*
X148231014Y-83514488D01*
X148231005Y-83514487D01*
X147954418Y-83494706D01*
X147950000Y-83494390D01*
X147945582Y-83494706D01*
X147668994Y-83514487D01*
X147668983Y-83514488D01*
X147664572Y-83514804D01*
X147660248Y-83515744D01*
X147660238Y-83515746D01*
X147389279Y-83574690D01*
X147389276Y-83574690D01*
X147384954Y-83575631D01*
X147380818Y-83577173D01*
X147380810Y-83577176D01*
X147120987Y-83674085D01*
X147120976Y-83674089D01*
X147116839Y-83675633D01*
X147112961Y-83677750D01*
X147112949Y-83677756D01*
X146869579Y-83810647D01*
X146869571Y-83810651D01*
X146865685Y-83812774D01*
X146862135Y-83815431D01*
X146862131Y-83815434D01*
X146640156Y-83981602D01*
X146640149Y-83981607D01*
X146636605Y-83984261D01*
X146633474Y-83987391D01*
X146633467Y-83987398D01*
X146437398Y-84183467D01*
X146437391Y-84183474D01*
X146434261Y-84186605D01*
X146431607Y-84190149D01*
X146431602Y-84190156D01*
X146265434Y-84412131D01*
X146262774Y-84415685D01*
X146260651Y-84419571D01*
X146260647Y-84419579D01*
X146127756Y-84662949D01*
X146127750Y-84662961D01*
X146125633Y-84666839D01*
X146124089Y-84670976D01*
X146124085Y-84670987D01*
X146027176Y-84930810D01*
X146027173Y-84930818D01*
X146025631Y-84934954D01*
X146024690Y-84939276D01*
X146024690Y-84939279D01*
X145965746Y-85210238D01*
X145965744Y-85210248D01*
X145964804Y-85214572D01*
X145964488Y-85218983D01*
X145964487Y-85218994D01*
X145945272Y-85487654D01*
X145944390Y-85500000D01*
X145088944Y-85500000D01*
X145068530Y-85214572D01*
X145007703Y-84934954D01*
X144907701Y-84666839D01*
X144770560Y-84415685D01*
X144599073Y-84186605D01*
X144396729Y-83984261D01*
X144167649Y-83812774D01*
X144163754Y-83810647D01*
X143920384Y-83677756D01*
X143920377Y-83677753D01*
X143916495Y-83675633D01*
X143912351Y-83674087D01*
X143912346Y-83674085D01*
X143652523Y-83577176D01*
X143652519Y-83577175D01*
X143648380Y-83575631D01*
X143618409Y-83569111D01*
X143373095Y-83515746D01*
X143373087Y-83515744D01*
X143368762Y-83514804D01*
X143364348Y-83514488D01*
X143364339Y-83514487D01*
X143087752Y-83494706D01*
X143083334Y-83494390D01*
X143078916Y-83494706D01*
X142802328Y-83514487D01*
X142802317Y-83514488D01*
X142797906Y-83514804D01*
X142793582Y-83515744D01*
X142793572Y-83515746D01*
X142522613Y-83574690D01*
X142522610Y-83574690D01*
X142518288Y-83575631D01*
X142514152Y-83577173D01*
X142514144Y-83577176D01*
X142254321Y-83674085D01*
X142254310Y-83674089D01*
X142250173Y-83675633D01*
X142246295Y-83677750D01*
X142246283Y-83677756D01*
X142002913Y-83810647D01*
X142002905Y-83810651D01*
X141999019Y-83812774D01*
X141995469Y-83815431D01*
X141995465Y-83815434D01*
X141773490Y-83981602D01*
X141773483Y-83981607D01*
X141769939Y-83984261D01*
X141766808Y-83987391D01*
X141766801Y-83987398D01*
X141570732Y-84183467D01*
X141570725Y-84183474D01*
X141567595Y-84186605D01*
X141564941Y-84190149D01*
X141564936Y-84190156D01*
X141398768Y-84412131D01*
X141396108Y-84415685D01*
X141393985Y-84419571D01*
X141393981Y-84419579D01*
X141261090Y-84662949D01*
X141261084Y-84662961D01*
X141258967Y-84666839D01*
X141257423Y-84670976D01*
X141257419Y-84670987D01*
X141160510Y-84930810D01*
X141160507Y-84930818D01*
X141158965Y-84934954D01*
X141158024Y-84939276D01*
X141158024Y-84939279D01*
X141099080Y-85210238D01*
X141099078Y-85210248D01*
X141098138Y-85214572D01*
X141097822Y-85218983D01*
X141097821Y-85218994D01*
X141078606Y-85487654D01*
X141077724Y-85500000D01*
X128788944Y-85500000D01*
X128768530Y-85214572D01*
X128707703Y-84934954D01*
X128607701Y-84666839D01*
X128470560Y-84415685D01*
X128299073Y-84186605D01*
X128096729Y-83984261D01*
X127867649Y-83812774D01*
X127863754Y-83810647D01*
X127620384Y-83677756D01*
X127620377Y-83677753D01*
X127616495Y-83675633D01*
X127612351Y-83674087D01*
X127612346Y-83674085D01*
X127352523Y-83577176D01*
X127352519Y-83577175D01*
X127348380Y-83575631D01*
X127318409Y-83569111D01*
X127073095Y-83515746D01*
X127073087Y-83515744D01*
X127068762Y-83514804D01*
X127064348Y-83514488D01*
X127064339Y-83514487D01*
X126787752Y-83494706D01*
X126783334Y-83494390D01*
X126778916Y-83494706D01*
X126502328Y-83514487D01*
X126502317Y-83514488D01*
X126497906Y-83514804D01*
X126493582Y-83515744D01*
X126493572Y-83515746D01*
X126222613Y-83574690D01*
X126222610Y-83574690D01*
X126218288Y-83575631D01*
X126214152Y-83577173D01*
X126214144Y-83577176D01*
X125954321Y-83674085D01*
X125954310Y-83674089D01*
X125950173Y-83675633D01*
X125946295Y-83677750D01*
X125946283Y-83677756D01*
X125702913Y-83810647D01*
X125702905Y-83810651D01*
X125699019Y-83812774D01*
X125695469Y-83815431D01*
X125695465Y-83815434D01*
X125473490Y-83981602D01*
X125473483Y-83981607D01*
X125469939Y-83984261D01*
X125466808Y-83987391D01*
X125466801Y-83987398D01*
X125270732Y-84183467D01*
X125270725Y-84183474D01*
X125267595Y-84186605D01*
X125264941Y-84190149D01*
X125264936Y-84190156D01*
X125098768Y-84412131D01*
X125096108Y-84415685D01*
X125093985Y-84419571D01*
X125093981Y-84419579D01*
X124961090Y-84662949D01*
X124961084Y-84662961D01*
X124958967Y-84666839D01*
X124957423Y-84670976D01*
X124957419Y-84670987D01*
X124860510Y-84930810D01*
X124860507Y-84930818D01*
X124858965Y-84934954D01*
X124858024Y-84939276D01*
X124858024Y-84939279D01*
X124799080Y-85210238D01*
X124799078Y-85210248D01*
X124798138Y-85214572D01*
X124797822Y-85218983D01*
X124797821Y-85218994D01*
X124778606Y-85487654D01*
X124777724Y-85500000D01*
X123892278Y-85500000D01*
X123871864Y-85214572D01*
X123811037Y-84934954D01*
X123711035Y-84666839D01*
X123573894Y-84415685D01*
X123402407Y-84186605D01*
X123200063Y-83984261D01*
X122970983Y-83812774D01*
X122967088Y-83810647D01*
X122723718Y-83677756D01*
X122723711Y-83677753D01*
X122719829Y-83675633D01*
X122715685Y-83674087D01*
X122715680Y-83674085D01*
X122455857Y-83577176D01*
X122455853Y-83577175D01*
X122451714Y-83575631D01*
X122421743Y-83569111D01*
X122176429Y-83515746D01*
X122176421Y-83515744D01*
X122172096Y-83514804D01*
X122167682Y-83514488D01*
X122167673Y-83514487D01*
X121891086Y-83494706D01*
X121886668Y-83494390D01*
X121882250Y-83494706D01*
X121605662Y-83514487D01*
X121605651Y-83514488D01*
X121601240Y-83514804D01*
X121596916Y-83515744D01*
X121596906Y-83515746D01*
X121325947Y-83574690D01*
X121325944Y-83574690D01*
X121321622Y-83575631D01*
X121317486Y-83577173D01*
X121317478Y-83577176D01*
X121057655Y-83674085D01*
X121057644Y-83674089D01*
X121053507Y-83675633D01*
X121049629Y-83677750D01*
X121049617Y-83677756D01*
X120806247Y-83810647D01*
X120806239Y-83810651D01*
X120802353Y-83812774D01*
X120798803Y-83815431D01*
X120798799Y-83815434D01*
X120576824Y-83981602D01*
X120576817Y-83981607D01*
X120573273Y-83984261D01*
X120570142Y-83987391D01*
X120570135Y-83987398D01*
X120374066Y-84183467D01*
X120374059Y-84183474D01*
X120370929Y-84186605D01*
X120368275Y-84190149D01*
X120368270Y-84190156D01*
X120202102Y-84412131D01*
X120199442Y-84415685D01*
X120197319Y-84419571D01*
X120197315Y-84419579D01*
X120064424Y-84662949D01*
X120064418Y-84662961D01*
X120062301Y-84666839D01*
X120060757Y-84670976D01*
X120060753Y-84670987D01*
X119963844Y-84930810D01*
X119963841Y-84930818D01*
X119962299Y-84934954D01*
X119961358Y-84939276D01*
X119961358Y-84939279D01*
X119902414Y-85210238D01*
X119902412Y-85210248D01*
X119901472Y-85214572D01*
X119901156Y-85218983D01*
X119901155Y-85218994D01*
X119881940Y-85487654D01*
X119881058Y-85500000D01*
X107592278Y-85500000D01*
X107571864Y-85214572D01*
X107511037Y-84934954D01*
X107411035Y-84666839D01*
X107273894Y-84415685D01*
X107102407Y-84186605D01*
X106900063Y-83984261D01*
X106670983Y-83812774D01*
X106667088Y-83810647D01*
X106423718Y-83677756D01*
X106423711Y-83677753D01*
X106419829Y-83675633D01*
X106415685Y-83674087D01*
X106415680Y-83674085D01*
X106155857Y-83577176D01*
X106155853Y-83577175D01*
X106151714Y-83575631D01*
X106121743Y-83569111D01*
X105876429Y-83515746D01*
X105876421Y-83515744D01*
X105872096Y-83514804D01*
X105867682Y-83514488D01*
X105867673Y-83514487D01*
X105591086Y-83494706D01*
X105586668Y-83494390D01*
X105582250Y-83494706D01*
X105305662Y-83514487D01*
X105305651Y-83514488D01*
X105301240Y-83514804D01*
X105296916Y-83515744D01*
X105296906Y-83515746D01*
X105025947Y-83574690D01*
X105025944Y-83574690D01*
X105021622Y-83575631D01*
X105017486Y-83577173D01*
X105017478Y-83577176D01*
X104757655Y-83674085D01*
X104757644Y-83674089D01*
X104753507Y-83675633D01*
X104749629Y-83677750D01*
X104749617Y-83677756D01*
X104506247Y-83810647D01*
X104506239Y-83810651D01*
X104502353Y-83812774D01*
X104498803Y-83815431D01*
X104498799Y-83815434D01*
X104276824Y-83981602D01*
X104276817Y-83981607D01*
X104273273Y-83984261D01*
X104270142Y-83987391D01*
X104270135Y-83987398D01*
X104074066Y-84183467D01*
X104074059Y-84183474D01*
X104070929Y-84186605D01*
X104068275Y-84190149D01*
X104068270Y-84190156D01*
X103902102Y-84412131D01*
X103899442Y-84415685D01*
X103897319Y-84419571D01*
X103897315Y-84419579D01*
X103764424Y-84662949D01*
X103764418Y-84662961D01*
X103762301Y-84666839D01*
X103760757Y-84670976D01*
X103760753Y-84670987D01*
X103663844Y-84930810D01*
X103663841Y-84930818D01*
X103662299Y-84934954D01*
X103661358Y-84939276D01*
X103661358Y-84939279D01*
X103602414Y-85210238D01*
X103602412Y-85210248D01*
X103601472Y-85214572D01*
X103601156Y-85218983D01*
X103601155Y-85218994D01*
X103581940Y-85487654D01*
X103581058Y-85500000D01*
X98056668Y-85500000D01*
X98056668Y-79200000D01*
X103581058Y-79200000D01*
X103581374Y-79204418D01*
X103601155Y-79481005D01*
X103601156Y-79481014D01*
X103601472Y-79485428D01*
X103602412Y-79489753D01*
X103602414Y-79489761D01*
X103655779Y-79735075D01*
X103662299Y-79765046D01*
X103762301Y-80033161D01*
X103764421Y-80037043D01*
X103764424Y-80037050D01*
X103897315Y-80280420D01*
X103899442Y-80284315D01*
X104070929Y-80513395D01*
X104273273Y-80715739D01*
X104502353Y-80887226D01*
X104753507Y-81024367D01*
X105021622Y-81124369D01*
X105301240Y-81185196D01*
X105586668Y-81205610D01*
X105872096Y-81185196D01*
X106151714Y-81124369D01*
X106419829Y-81024367D01*
X106670983Y-80887226D01*
X106900063Y-80715739D01*
X107102407Y-80513395D01*
X107273894Y-80284315D01*
X107411035Y-80033161D01*
X107511037Y-79765046D01*
X107571864Y-79485428D01*
X107592278Y-79200000D01*
X119881058Y-79200000D01*
X119881374Y-79204418D01*
X119901155Y-79481005D01*
X119901156Y-79481014D01*
X119901472Y-79485428D01*
X119902412Y-79489753D01*
X119902414Y-79489761D01*
X119955779Y-79735075D01*
X119962299Y-79765046D01*
X120062301Y-80033161D01*
X120064421Y-80037043D01*
X120064424Y-80037050D01*
X120197315Y-80280420D01*
X120199442Y-80284315D01*
X120370929Y-80513395D01*
X120573273Y-80715739D01*
X120802353Y-80887226D01*
X121053507Y-81024367D01*
X121321622Y-81124369D01*
X121601240Y-81185196D01*
X121886668Y-81205610D01*
X122172096Y-81185196D01*
X122451714Y-81124369D01*
X122719829Y-81024367D01*
X122970983Y-80887226D01*
X123200063Y-80715739D01*
X123402407Y-80513395D01*
X123573894Y-80284315D01*
X123711035Y-80033161D01*
X123811037Y-79765046D01*
X123871864Y-79485428D01*
X123892278Y-79200000D01*
X124777724Y-79200000D01*
X124778040Y-79204418D01*
X124797821Y-79481005D01*
X124797822Y-79481014D01*
X124798138Y-79485428D01*
X124799078Y-79489753D01*
X124799080Y-79489761D01*
X124852445Y-79735075D01*
X124858965Y-79765046D01*
X124958967Y-80033161D01*
X124961087Y-80037043D01*
X124961090Y-80037050D01*
X125093981Y-80280420D01*
X125096108Y-80284315D01*
X125267595Y-80513395D01*
X125469939Y-80715739D01*
X125699019Y-80887226D01*
X125950173Y-81024367D01*
X126218288Y-81124369D01*
X126497906Y-81185196D01*
X126783334Y-81205610D01*
X127068762Y-81185196D01*
X127348380Y-81124369D01*
X127616495Y-81024367D01*
X127867649Y-80887226D01*
X128096729Y-80715739D01*
X128299073Y-80513395D01*
X128470560Y-80284315D01*
X128607701Y-80033161D01*
X128707703Y-79765046D01*
X128768530Y-79485428D01*
X128788944Y-79200000D01*
X141077724Y-79200000D01*
X141078040Y-79204418D01*
X141097821Y-79481005D01*
X141097822Y-79481014D01*
X141098138Y-79485428D01*
X141099078Y-79489753D01*
X141099080Y-79489761D01*
X141152445Y-79735075D01*
X141158965Y-79765046D01*
X141258967Y-80033161D01*
X141261087Y-80037043D01*
X141261090Y-80037050D01*
X141393981Y-80280420D01*
X141396108Y-80284315D01*
X141567595Y-80513395D01*
X141769939Y-80715739D01*
X141999019Y-80887226D01*
X142250173Y-81024367D01*
X142518288Y-81124369D01*
X142797906Y-81185196D01*
X143083334Y-81205610D01*
X143368762Y-81185196D01*
X143648380Y-81124369D01*
X143916495Y-81024367D01*
X144167649Y-80887226D01*
X144396729Y-80715739D01*
X144599073Y-80513395D01*
X144770560Y-80284315D01*
X144907701Y-80033161D01*
X145007703Y-79765046D01*
X145068530Y-79485428D01*
X145088944Y-79200000D01*
X145944390Y-79200000D01*
X145944706Y-79204418D01*
X145964487Y-79481005D01*
X145964488Y-79481014D01*
X145964804Y-79485428D01*
X145965744Y-79489753D01*
X145965746Y-79489761D01*
X146019111Y-79735075D01*
X146025631Y-79765046D01*
X146125633Y-80033161D01*
X146127753Y-80037043D01*
X146127756Y-80037050D01*
X146260647Y-80280420D01*
X146262774Y-80284315D01*
X146434261Y-80513395D01*
X146636605Y-80715739D01*
X146865685Y-80887226D01*
X147116839Y-81024367D01*
X147384954Y-81124369D01*
X147664572Y-81185196D01*
X147950000Y-81205610D01*
X148235428Y-81185196D01*
X148515046Y-81124369D01*
X148783161Y-81024367D01*
X149034315Y-80887226D01*
X149263395Y-80715739D01*
X149465739Y-80513395D01*
X149637226Y-80284315D01*
X149774367Y-80033161D01*
X149874369Y-79765046D01*
X149935196Y-79485428D01*
X149955610Y-79200000D01*
X162244390Y-79200000D01*
X162244706Y-79204418D01*
X162264487Y-79481005D01*
X162264488Y-79481014D01*
X162264804Y-79485428D01*
X162265744Y-79489753D01*
X162265746Y-79489761D01*
X162319111Y-79735075D01*
X162325631Y-79765046D01*
X162425633Y-80033161D01*
X162427753Y-80037043D01*
X162427756Y-80037050D01*
X162560647Y-80280420D01*
X162562774Y-80284315D01*
X162734261Y-80513395D01*
X162936605Y-80715739D01*
X163165685Y-80887226D01*
X163416839Y-81024367D01*
X163684954Y-81124369D01*
X163964572Y-81185196D01*
X164250000Y-81205610D01*
X164535428Y-81185196D01*
X164815046Y-81124369D01*
X165083161Y-81024367D01*
X165334315Y-80887226D01*
X165563395Y-80715739D01*
X165765739Y-80513395D01*
X165937226Y-80284315D01*
X166074367Y-80033161D01*
X166174369Y-79765046D01*
X166235196Y-79485428D01*
X166255610Y-79200000D01*
X167111058Y-79200000D01*
X167111374Y-79204418D01*
X167131155Y-79481005D01*
X167131156Y-79481014D01*
X167131472Y-79485428D01*
X167132412Y-79489753D01*
X167132414Y-79489761D01*
X167185779Y-79735075D01*
X167192299Y-79765046D01*
X167292301Y-80033161D01*
X167294421Y-80037043D01*
X167294424Y-80037050D01*
X167427315Y-80280420D01*
X167429442Y-80284315D01*
X167600929Y-80513395D01*
X167803273Y-80715739D01*
X168032353Y-80887226D01*
X168283507Y-81024367D01*
X168551622Y-81124369D01*
X168831240Y-81185196D01*
X169116668Y-81205610D01*
X169402096Y-81185196D01*
X169681714Y-81124369D01*
X169949829Y-81024367D01*
X170200983Y-80887226D01*
X170430063Y-80715739D01*
X170632407Y-80513395D01*
X170803894Y-80284315D01*
X170941035Y-80033161D01*
X171041037Y-79765046D01*
X171101864Y-79485428D01*
X171122278Y-79200000D01*
X183411058Y-79200000D01*
X183411374Y-79204418D01*
X183431155Y-79481005D01*
X183431156Y-79481014D01*
X183431472Y-79485428D01*
X183432412Y-79489753D01*
X183432414Y-79489761D01*
X183485779Y-79735075D01*
X183492299Y-79765046D01*
X183592301Y-80033161D01*
X183594421Y-80037043D01*
X183594424Y-80037050D01*
X183727315Y-80280420D01*
X183729442Y-80284315D01*
X183900929Y-80513395D01*
X184103273Y-80715739D01*
X184332353Y-80887226D01*
X184583507Y-81024367D01*
X184851622Y-81124369D01*
X185131240Y-81185196D01*
X185416668Y-81205610D01*
X185702096Y-81185196D01*
X185981714Y-81124369D01*
X186249829Y-81024367D01*
X186500983Y-80887226D01*
X186730063Y-80715739D01*
X186932407Y-80513395D01*
X187103894Y-80284315D01*
X187241035Y-80033161D01*
X187341037Y-79765046D01*
X187401864Y-79485428D01*
X187422278Y-79200000D01*
X187401864Y-78914572D01*
X187341037Y-78634954D01*
X187241035Y-78366839D01*
X187103894Y-78115685D01*
X186932407Y-77886605D01*
X186730063Y-77684261D01*
X186500983Y-77512774D01*
X186497088Y-77510647D01*
X186253718Y-77377756D01*
X186253711Y-77377753D01*
X186249829Y-77375633D01*
X186245685Y-77374087D01*
X186245680Y-77374085D01*
X185985857Y-77277176D01*
X185985853Y-77277175D01*
X185981714Y-77275631D01*
X185951743Y-77269111D01*
X185706429Y-77215746D01*
X185706421Y-77215744D01*
X185702096Y-77214804D01*
X185697682Y-77214488D01*
X185697673Y-77214487D01*
X185421086Y-77194706D01*
X185416668Y-77194390D01*
X185412250Y-77194706D01*
X185135662Y-77214487D01*
X185135651Y-77214488D01*
X185131240Y-77214804D01*
X185126916Y-77215744D01*
X185126906Y-77215746D01*
X184855947Y-77274690D01*
X184855944Y-77274690D01*
X184851622Y-77275631D01*
X184847486Y-77277173D01*
X184847478Y-77277176D01*
X184587655Y-77374085D01*
X184587644Y-77374089D01*
X184583507Y-77375633D01*
X184579629Y-77377750D01*
X184579617Y-77377756D01*
X184336247Y-77510647D01*
X184336239Y-77510651D01*
X184332353Y-77512774D01*
X184328803Y-77515431D01*
X184328799Y-77515434D01*
X184106824Y-77681602D01*
X184106817Y-77681607D01*
X184103273Y-77684261D01*
X184100142Y-77687391D01*
X184100135Y-77687398D01*
X183904066Y-77883467D01*
X183904059Y-77883474D01*
X183900929Y-77886605D01*
X183898275Y-77890149D01*
X183898270Y-77890156D01*
X183732102Y-78112131D01*
X183729442Y-78115685D01*
X183727319Y-78119571D01*
X183727315Y-78119579D01*
X183594424Y-78362949D01*
X183594418Y-78362961D01*
X183592301Y-78366839D01*
X183590757Y-78370976D01*
X183590753Y-78370987D01*
X183493844Y-78630810D01*
X183493841Y-78630818D01*
X183492299Y-78634954D01*
X183491358Y-78639276D01*
X183491358Y-78639279D01*
X183432414Y-78910238D01*
X183432412Y-78910248D01*
X183431472Y-78914572D01*
X183431156Y-78918983D01*
X183431155Y-78918994D01*
X183411940Y-79187654D01*
X183411058Y-79200000D01*
X171122278Y-79200000D01*
X171101864Y-78914572D01*
X171041037Y-78634954D01*
X170941035Y-78366839D01*
X170803894Y-78115685D01*
X170632407Y-77886605D01*
X170430063Y-77684261D01*
X170200983Y-77512774D01*
X170197088Y-77510647D01*
X169953718Y-77377756D01*
X169953711Y-77377753D01*
X169949829Y-77375633D01*
X169945685Y-77374087D01*
X169945680Y-77374085D01*
X169685857Y-77277176D01*
X169685853Y-77277175D01*
X169681714Y-77275631D01*
X169651743Y-77269111D01*
X169406429Y-77215746D01*
X169406421Y-77215744D01*
X169402096Y-77214804D01*
X169397682Y-77214488D01*
X169397673Y-77214487D01*
X169121086Y-77194706D01*
X169116668Y-77194390D01*
X169112250Y-77194706D01*
X168835662Y-77214487D01*
X168835651Y-77214488D01*
X168831240Y-77214804D01*
X168826916Y-77215744D01*
X168826906Y-77215746D01*
X168555947Y-77274690D01*
X168555944Y-77274690D01*
X168551622Y-77275631D01*
X168547486Y-77277173D01*
X168547478Y-77277176D01*
X168287655Y-77374085D01*
X168287644Y-77374089D01*
X168283507Y-77375633D01*
X168279629Y-77377750D01*
X168279617Y-77377756D01*
X168036247Y-77510647D01*
X168036239Y-77510651D01*
X168032353Y-77512774D01*
X168028803Y-77515431D01*
X168028799Y-77515434D01*
X167806824Y-77681602D01*
X167806817Y-77681607D01*
X167803273Y-77684261D01*
X167800142Y-77687391D01*
X167800135Y-77687398D01*
X167604066Y-77883467D01*
X167604059Y-77883474D01*
X167600929Y-77886605D01*
X167598275Y-77890149D01*
X167598270Y-77890156D01*
X167432102Y-78112131D01*
X167429442Y-78115685D01*
X167427319Y-78119571D01*
X167427315Y-78119579D01*
X167294424Y-78362949D01*
X167294418Y-78362961D01*
X167292301Y-78366839D01*
X167290757Y-78370976D01*
X167290753Y-78370987D01*
X167193844Y-78630810D01*
X167193841Y-78630818D01*
X167192299Y-78634954D01*
X167191358Y-78639276D01*
X167191358Y-78639279D01*
X167132414Y-78910238D01*
X167132412Y-78910248D01*
X167131472Y-78914572D01*
X167131156Y-78918983D01*
X167131155Y-78918994D01*
X167111940Y-79187654D01*
X167111058Y-79200000D01*
X166255610Y-79200000D01*
X166235196Y-78914572D01*
X166174369Y-78634954D01*
X166074367Y-78366839D01*
X165937226Y-78115685D01*
X165765739Y-77886605D01*
X165563395Y-77684261D01*
X165334315Y-77512774D01*
X165330420Y-77510647D01*
X165087050Y-77377756D01*
X165087043Y-77377753D01*
X165083161Y-77375633D01*
X165079017Y-77374087D01*
X165079012Y-77374085D01*
X164819189Y-77277176D01*
X164819185Y-77277175D01*
X164815046Y-77275631D01*
X164785075Y-77269111D01*
X164539761Y-77215746D01*
X164539753Y-77215744D01*
X164535428Y-77214804D01*
X164531014Y-77214488D01*
X164531005Y-77214487D01*
X164254418Y-77194706D01*
X164250000Y-77194390D01*
X164245582Y-77194706D01*
X163968994Y-77214487D01*
X163968983Y-77214488D01*
X163964572Y-77214804D01*
X163960248Y-77215744D01*
X163960238Y-77215746D01*
X163689279Y-77274690D01*
X163689276Y-77274690D01*
X163684954Y-77275631D01*
X163680818Y-77277173D01*
X163680810Y-77277176D01*
X163420987Y-77374085D01*
X163420976Y-77374089D01*
X163416839Y-77375633D01*
X163412961Y-77377750D01*
X163412949Y-77377756D01*
X163169579Y-77510647D01*
X163169571Y-77510651D01*
X163165685Y-77512774D01*
X163162135Y-77515431D01*
X163162131Y-77515434D01*
X162940156Y-77681602D01*
X162940149Y-77681607D01*
X162936605Y-77684261D01*
X162933474Y-77687391D01*
X162933467Y-77687398D01*
X162737398Y-77883467D01*
X162737391Y-77883474D01*
X162734261Y-77886605D01*
X162731607Y-77890149D01*
X162731602Y-77890156D01*
X162565434Y-78112131D01*
X162562774Y-78115685D01*
X162560651Y-78119571D01*
X162560647Y-78119579D01*
X162427756Y-78362949D01*
X162427750Y-78362961D01*
X162425633Y-78366839D01*
X162424089Y-78370976D01*
X162424085Y-78370987D01*
X162327176Y-78630810D01*
X162327173Y-78630818D01*
X162325631Y-78634954D01*
X162324690Y-78639276D01*
X162324690Y-78639279D01*
X162265746Y-78910238D01*
X162265744Y-78910248D01*
X162264804Y-78914572D01*
X162264488Y-78918983D01*
X162264487Y-78918994D01*
X162245272Y-79187654D01*
X162244390Y-79200000D01*
X149955610Y-79200000D01*
X149935196Y-78914572D01*
X149874369Y-78634954D01*
X149774367Y-78366839D01*
X149637226Y-78115685D01*
X149465739Y-77886605D01*
X149263395Y-77684261D01*
X149034315Y-77512774D01*
X149030420Y-77510647D01*
X148787050Y-77377756D01*
X148787043Y-77377753D01*
X148783161Y-77375633D01*
X148779017Y-77374087D01*
X148779012Y-77374085D01*
X148519189Y-77277176D01*
X148519185Y-77277175D01*
X148515046Y-77275631D01*
X148485075Y-77269111D01*
X148239761Y-77215746D01*
X148239753Y-77215744D01*
X148235428Y-77214804D01*
X148231014Y-77214488D01*
X148231005Y-77214487D01*
X147954418Y-77194706D01*
X147950000Y-77194390D01*
X147945582Y-77194706D01*
X147668994Y-77214487D01*
X147668983Y-77214488D01*
X147664572Y-77214804D01*
X147660248Y-77215744D01*
X147660238Y-77215746D01*
X147389279Y-77274690D01*
X147389276Y-77274690D01*
X147384954Y-77275631D01*
X147380818Y-77277173D01*
X147380810Y-77277176D01*
X147120987Y-77374085D01*
X147120976Y-77374089D01*
X147116839Y-77375633D01*
X147112961Y-77377750D01*
X147112949Y-77377756D01*
X146869579Y-77510647D01*
X146869571Y-77510651D01*
X146865685Y-77512774D01*
X146862135Y-77515431D01*
X146862131Y-77515434D01*
X146640156Y-77681602D01*
X146640149Y-77681607D01*
X146636605Y-77684261D01*
X146633474Y-77687391D01*
X146633467Y-77687398D01*
X146437398Y-77883467D01*
X146437391Y-77883474D01*
X146434261Y-77886605D01*
X146431607Y-77890149D01*
X146431602Y-77890156D01*
X146265434Y-78112131D01*
X146262774Y-78115685D01*
X146260651Y-78119571D01*
X146260647Y-78119579D01*
X146127756Y-78362949D01*
X146127750Y-78362961D01*
X146125633Y-78366839D01*
X146124089Y-78370976D01*
X146124085Y-78370987D01*
X146027176Y-78630810D01*
X146027173Y-78630818D01*
X146025631Y-78634954D01*
X146024690Y-78639276D01*
X146024690Y-78639279D01*
X145965746Y-78910238D01*
X145965744Y-78910248D01*
X145964804Y-78914572D01*
X145964488Y-78918983D01*
X145964487Y-78918994D01*
X145945272Y-79187654D01*
X145944390Y-79200000D01*
X145088944Y-79200000D01*
X145068530Y-78914572D01*
X145007703Y-78634954D01*
X144907701Y-78366839D01*
X144770560Y-78115685D01*
X144599073Y-77886605D01*
X144396729Y-77684261D01*
X144167649Y-77512774D01*
X144163754Y-77510647D01*
X143920384Y-77377756D01*
X143920377Y-77377753D01*
X143916495Y-77375633D01*
X143912351Y-77374087D01*
X143912346Y-77374085D01*
X143652523Y-77277176D01*
X143652519Y-77277175D01*
X143648380Y-77275631D01*
X143618409Y-77269111D01*
X143373095Y-77215746D01*
X143373087Y-77215744D01*
X143368762Y-77214804D01*
X143364348Y-77214488D01*
X143364339Y-77214487D01*
X143087752Y-77194706D01*
X143083334Y-77194390D01*
X143078916Y-77194706D01*
X142802328Y-77214487D01*
X142802317Y-77214488D01*
X142797906Y-77214804D01*
X142793582Y-77215744D01*
X142793572Y-77215746D01*
X142522613Y-77274690D01*
X142522610Y-77274690D01*
X142518288Y-77275631D01*
X142514152Y-77277173D01*
X142514144Y-77277176D01*
X142254321Y-77374085D01*
X142254310Y-77374089D01*
X142250173Y-77375633D01*
X142246295Y-77377750D01*
X142246283Y-77377756D01*
X142002913Y-77510647D01*
X142002905Y-77510651D01*
X141999019Y-77512774D01*
X141995469Y-77515431D01*
X141995465Y-77515434D01*
X141773490Y-77681602D01*
X141773483Y-77681607D01*
X141769939Y-77684261D01*
X141766808Y-77687391D01*
X141766801Y-77687398D01*
X141570732Y-77883467D01*
X141570725Y-77883474D01*
X141567595Y-77886605D01*
X141564941Y-77890149D01*
X141564936Y-77890156D01*
X141398768Y-78112131D01*
X141396108Y-78115685D01*
X141393985Y-78119571D01*
X141393981Y-78119579D01*
X141261090Y-78362949D01*
X141261084Y-78362961D01*
X141258967Y-78366839D01*
X141257423Y-78370976D01*
X141257419Y-78370987D01*
X141160510Y-78630810D01*
X141160507Y-78630818D01*
X141158965Y-78634954D01*
X141158024Y-78639276D01*
X141158024Y-78639279D01*
X141099080Y-78910238D01*
X141099078Y-78910248D01*
X141098138Y-78914572D01*
X141097822Y-78918983D01*
X141097821Y-78918994D01*
X141078606Y-79187654D01*
X141077724Y-79200000D01*
X128788944Y-79200000D01*
X128768530Y-78914572D01*
X128707703Y-78634954D01*
X128607701Y-78366839D01*
X128470560Y-78115685D01*
X128299073Y-77886605D01*
X128096729Y-77684261D01*
X127867649Y-77512774D01*
X127863754Y-77510647D01*
X127620384Y-77377756D01*
X127620377Y-77377753D01*
X127616495Y-77375633D01*
X127612351Y-77374087D01*
X127612346Y-77374085D01*
X127352523Y-77277176D01*
X127352519Y-77277175D01*
X127348380Y-77275631D01*
X127318409Y-77269111D01*
X127073095Y-77215746D01*
X127073087Y-77215744D01*
X127068762Y-77214804D01*
X127064348Y-77214488D01*
X127064339Y-77214487D01*
X126787752Y-77194706D01*
X126783334Y-77194390D01*
X126778916Y-77194706D01*
X126502328Y-77214487D01*
X126502317Y-77214488D01*
X126497906Y-77214804D01*
X126493582Y-77215744D01*
X126493572Y-77215746D01*
X126222613Y-77274690D01*
X126222610Y-77274690D01*
X126218288Y-77275631D01*
X126214152Y-77277173D01*
X126214144Y-77277176D01*
X125954321Y-77374085D01*
X125954310Y-77374089D01*
X125950173Y-77375633D01*
X125946295Y-77377750D01*
X125946283Y-77377756D01*
X125702913Y-77510647D01*
X125702905Y-77510651D01*
X125699019Y-77512774D01*
X125695469Y-77515431D01*
X125695465Y-77515434D01*
X125473490Y-77681602D01*
X125473483Y-77681607D01*
X125469939Y-77684261D01*
X125466808Y-77687391D01*
X125466801Y-77687398D01*
X125270732Y-77883467D01*
X125270725Y-77883474D01*
X125267595Y-77886605D01*
X125264941Y-77890149D01*
X125264936Y-77890156D01*
X125098768Y-78112131D01*
X125096108Y-78115685D01*
X125093985Y-78119571D01*
X125093981Y-78119579D01*
X124961090Y-78362949D01*
X124961084Y-78362961D01*
X124958967Y-78366839D01*
X124957423Y-78370976D01*
X124957419Y-78370987D01*
X124860510Y-78630810D01*
X124860507Y-78630818D01*
X124858965Y-78634954D01*
X124858024Y-78639276D01*
X124858024Y-78639279D01*
X124799080Y-78910238D01*
X124799078Y-78910248D01*
X124798138Y-78914572D01*
X124797822Y-78918983D01*
X124797821Y-78918994D01*
X124778606Y-79187654D01*
X124777724Y-79200000D01*
X123892278Y-79200000D01*
X123871864Y-78914572D01*
X123811037Y-78634954D01*
X123711035Y-78366839D01*
X123573894Y-78115685D01*
X123402407Y-77886605D01*
X123200063Y-77684261D01*
X122970983Y-77512774D01*
X122967088Y-77510647D01*
X122723718Y-77377756D01*
X122723711Y-77377753D01*
X122719829Y-77375633D01*
X122715685Y-77374087D01*
X122715680Y-77374085D01*
X122455857Y-77277176D01*
X122455853Y-77277175D01*
X122451714Y-77275631D01*
X122421743Y-77269111D01*
X122176429Y-77215746D01*
X122176421Y-77215744D01*
X122172096Y-77214804D01*
X122167682Y-77214488D01*
X122167673Y-77214487D01*
X121891086Y-77194706D01*
X121886668Y-77194390D01*
X121882250Y-77194706D01*
X121605662Y-77214487D01*
X121605651Y-77214488D01*
X121601240Y-77214804D01*
X121596916Y-77215744D01*
X121596906Y-77215746D01*
X121325947Y-77274690D01*
X121325944Y-77274690D01*
X121321622Y-77275631D01*
X121317486Y-77277173D01*
X121317478Y-77277176D01*
X121057655Y-77374085D01*
X121057644Y-77374089D01*
X121053507Y-77375633D01*
X121049629Y-77377750D01*
X121049617Y-77377756D01*
X120806247Y-77510647D01*
X120806239Y-77510651D01*
X120802353Y-77512774D01*
X120798803Y-77515431D01*
X120798799Y-77515434D01*
X120576824Y-77681602D01*
X120576817Y-77681607D01*
X120573273Y-77684261D01*
X120570142Y-77687391D01*
X120570135Y-77687398D01*
X120374066Y-77883467D01*
X120374059Y-77883474D01*
X120370929Y-77886605D01*
X120368275Y-77890149D01*
X120368270Y-77890156D01*
X120202102Y-78112131D01*
X120199442Y-78115685D01*
X120197319Y-78119571D01*
X120197315Y-78119579D01*
X120064424Y-78362949D01*
X120064418Y-78362961D01*
X120062301Y-78366839D01*
X120060757Y-78370976D01*
X120060753Y-78370987D01*
X119963844Y-78630810D01*
X119963841Y-78630818D01*
X119962299Y-78634954D01*
X119961358Y-78639276D01*
X119961358Y-78639279D01*
X119902414Y-78910238D01*
X119902412Y-78910248D01*
X119901472Y-78914572D01*
X119901156Y-78918983D01*
X119901155Y-78918994D01*
X119881940Y-79187654D01*
X119881058Y-79200000D01*
X107592278Y-79200000D01*
X107571864Y-78914572D01*
X107511037Y-78634954D01*
X107411035Y-78366839D01*
X107273894Y-78115685D01*
X107102407Y-77886605D01*
X106900063Y-77684261D01*
X106670983Y-77512774D01*
X106667088Y-77510647D01*
X106423718Y-77377756D01*
X106423711Y-77377753D01*
X106419829Y-77375633D01*
X106415685Y-77374087D01*
X106415680Y-77374085D01*
X106155857Y-77277176D01*
X106155853Y-77277175D01*
X106151714Y-77275631D01*
X106121743Y-77269111D01*
X105876429Y-77215746D01*
X105876421Y-77215744D01*
X105872096Y-77214804D01*
X105867682Y-77214488D01*
X105867673Y-77214487D01*
X105591086Y-77194706D01*
X105586668Y-77194390D01*
X105582250Y-77194706D01*
X105305662Y-77214487D01*
X105305651Y-77214488D01*
X105301240Y-77214804D01*
X105296916Y-77215744D01*
X105296906Y-77215746D01*
X105025947Y-77274690D01*
X105025944Y-77274690D01*
X105021622Y-77275631D01*
X105017486Y-77277173D01*
X105017478Y-77277176D01*
X104757655Y-77374085D01*
X104757644Y-77374089D01*
X104753507Y-77375633D01*
X104749629Y-77377750D01*
X104749617Y-77377756D01*
X104506247Y-77510647D01*
X104506239Y-77510651D01*
X104502353Y-77512774D01*
X104498803Y-77515431D01*
X104498799Y-77515434D01*
X104276824Y-77681602D01*
X104276817Y-77681607D01*
X104273273Y-77684261D01*
X104270142Y-77687391D01*
X104270135Y-77687398D01*
X104074066Y-77883467D01*
X104074059Y-77883474D01*
X104070929Y-77886605D01*
X104068275Y-77890149D01*
X104068270Y-77890156D01*
X103902102Y-78112131D01*
X103899442Y-78115685D01*
X103897319Y-78119571D01*
X103897315Y-78119579D01*
X103764424Y-78362949D01*
X103764418Y-78362961D01*
X103762301Y-78366839D01*
X103760757Y-78370976D01*
X103760753Y-78370987D01*
X103663844Y-78630810D01*
X103663841Y-78630818D01*
X103662299Y-78634954D01*
X103661358Y-78639276D01*
X103661358Y-78639279D01*
X103602414Y-78910238D01*
X103602412Y-78910248D01*
X103601472Y-78914572D01*
X103601156Y-78918983D01*
X103601155Y-78918994D01*
X103581940Y-79187654D01*
X103581058Y-79200000D01*
X98056668Y-79200000D01*
X98056668Y-73400000D01*
X99101009Y-73400000D01*
X99121605Y-73635408D01*
X99123004Y-73640630D01*
X99123005Y-73640634D01*
X99181362Y-73858430D01*
X99181365Y-73858438D01*
X99182765Y-73863663D01*
X99282633Y-74077829D01*
X99418173Y-74271401D01*
X99585267Y-74438495D01*
X99778839Y-74574035D01*
X99993005Y-74673903D01*
X100221260Y-74735063D01*
X100397702Y-74750500D01*
X100512926Y-74750500D01*
X100515634Y-74750500D01*
X100692076Y-74735063D01*
X100920331Y-74673903D01*
X101134497Y-74574035D01*
X101319467Y-74444518D01*
X103586668Y-74444518D01*
X103587021Y-74451114D01*
X103592241Y-74499667D01*
X103595779Y-74514641D01*
X103640215Y-74633777D01*
X103648630Y-74649189D01*
X103724166Y-74750092D01*
X103736575Y-74762501D01*
X103837478Y-74838037D01*
X103852890Y-74846452D01*
X103972026Y-74890888D01*
X103987000Y-74894426D01*
X104035553Y-74899646D01*
X104042150Y-74900000D01*
X105320342Y-74900000D01*
X105333217Y-74896549D01*
X105336668Y-74883674D01*
X105836668Y-74883674D01*
X105840118Y-74896549D01*
X105852994Y-74900000D01*
X107131186Y-74900000D01*
X107137782Y-74899646D01*
X107186335Y-74894426D01*
X107201309Y-74890888D01*
X107320445Y-74846452D01*
X107335857Y-74838037D01*
X107436760Y-74762501D01*
X107449169Y-74750092D01*
X107524705Y-74649189D01*
X107533120Y-74633777D01*
X107577556Y-74514641D01*
X107581094Y-74499667D01*
X107586314Y-74451114D01*
X107586668Y-74444518D01*
X107586668Y-73166326D01*
X107583217Y-73153450D01*
X107570342Y-73150000D01*
X105852994Y-73150000D01*
X105840118Y-73153450D01*
X105836668Y-73166326D01*
X105836668Y-74883674D01*
X105336668Y-74883674D01*
X105336668Y-73166326D01*
X105333217Y-73153450D01*
X105320342Y-73150000D01*
X103602994Y-73150000D01*
X103590118Y-73153450D01*
X103586668Y-73166326D01*
X103586668Y-74444518D01*
X101319467Y-74444518D01*
X101328069Y-74438495D01*
X101495163Y-74271401D01*
X101630703Y-74077830D01*
X101730571Y-73863663D01*
X101791731Y-73635408D01*
X101812327Y-73400000D01*
X101791731Y-73164592D01*
X101730571Y-72936337D01*
X101630703Y-72722171D01*
X101495163Y-72528599D01*
X101328069Y-72361505D01*
X101260725Y-72314350D01*
X101138936Y-72229073D01*
X101138934Y-72229072D01*
X101134497Y-72225965D01*
X100920331Y-72126097D01*
X100915106Y-72124697D01*
X100915098Y-72124694D01*
X100697302Y-72066337D01*
X100697298Y-72066336D01*
X100692076Y-72064937D01*
X100686688Y-72064465D01*
X100686685Y-72064465D01*
X100518332Y-72049736D01*
X100518330Y-72049735D01*
X100515634Y-72049500D01*
X100397702Y-72049500D01*
X100395006Y-72049735D01*
X100395003Y-72049736D01*
X100226650Y-72064465D01*
X100226645Y-72064465D01*
X100221260Y-72064937D01*
X100216039Y-72066335D01*
X100216033Y-72066337D01*
X99998237Y-72124694D01*
X99998225Y-72124698D01*
X99993005Y-72126097D01*
X99988100Y-72128383D01*
X99988095Y-72128386D01*
X99783749Y-72223675D01*
X99783745Y-72223677D01*
X99778839Y-72225965D01*
X99774406Y-72229068D01*
X99774399Y-72229073D01*
X99589702Y-72358399D01*
X99589697Y-72358402D01*
X99585267Y-72361505D01*
X99581443Y-72365328D01*
X99581437Y-72365334D01*
X99422004Y-72524767D01*
X99421998Y-72524773D01*
X99418173Y-72528599D01*
X99415074Y-72533023D01*
X99415067Y-72533033D01*
X99285734Y-72717740D01*
X99285729Y-72717747D01*
X99282633Y-72722170D01*
X99280351Y-72727061D01*
X99280346Y-72727072D01*
X99185054Y-72931427D01*
X99185051Y-72931432D01*
X99182765Y-72936337D01*
X99181366Y-72941557D01*
X99181362Y-72941569D01*
X99123005Y-73159365D01*
X99123003Y-73159371D01*
X99121605Y-73164592D01*
X99121133Y-73169977D01*
X99121133Y-73169982D01*
X99102671Y-73381005D01*
X99101009Y-73400000D01*
X98056668Y-73400000D01*
X98056668Y-72734473D01*
X98062282Y-72697585D01*
X98063771Y-72692804D01*
X98079773Y-72641452D01*
X98080681Y-72638662D01*
X98132013Y-72487442D01*
X98136335Y-72476462D01*
X98194936Y-72346255D01*
X98196750Y-72342410D01*
X98265894Y-72202197D01*
X98270966Y-72192932D01*
X98345661Y-72069371D01*
X98348622Y-72064714D01*
X98434643Y-71935974D01*
X98440072Y-71928478D01*
X98529628Y-71814167D01*
X98533907Y-71809006D01*
X98635579Y-71693069D01*
X98641061Y-71687217D01*
X98743880Y-71584396D01*
X98749762Y-71578887D01*
X98865645Y-71477259D01*
X98870884Y-71472915D01*
X98985143Y-71383398D01*
X98992662Y-71377952D01*
X99121381Y-71291943D01*
X99126057Y-71288970D01*
X99249591Y-71214290D01*
X99258866Y-71209211D01*
X99399117Y-71140045D01*
X99402928Y-71138249D01*
X99533113Y-71079656D01*
X99544120Y-71075322D01*
X99695315Y-71023996D01*
X99698140Y-71023077D01*
X99831269Y-70981590D01*
X99843938Y-70978366D01*
X100008671Y-70945597D01*
X100010332Y-70945279D01*
X100139380Y-70921629D01*
X100153578Y-70919869D01*
X100364107Y-70906067D01*
X100450578Y-70900836D01*
X100452398Y-70900726D01*
X100459885Y-70900500D01*
X103588290Y-70900500D01*
X103653457Y-70919005D01*
G37*
%TD.AperFunction*%
%TD*%
M02*
