M48
; DRILL file {KiCad (7.0.0)} date Tue Feb 28 10:18:44 2023
; FORMAT={-:-/ absolute / inch / decimal}
; #@! TF.CreationDate,2023-02-28T10:18:44+09:00
; #@! TF.GenerationSoftware,Kicad,Pcbnew,(7.0.0)
; #@! TF.FileFunction,Plated,1,2,PTH
FMAT,2
INCH
; #@! TA.AperFunction,Plated,PTH,ViaDrill
T1C0.0157
; #@! TA.AperFunction,Plated,PTH,ComponentDrill
T2C0.0394
; #@! TA.AperFunction,Plated,PTH,ComponentDrill
T3C0.0591
%
G90
G05
T1
X3.9983Y-3.248
X4.014Y-3.815
X4.014Y-4.4016
X4.2227Y-4.5866
X4.3684Y-4.189
X4.3723Y-3.811
X4.3762Y-3.2913
X4.5534Y-4.3346
X4.5613Y-4.0079
X4.581Y-2.9803
X4.7699Y-3.8071
X4.7896Y-4.2008
X4.8014Y-4.6142
X5.1125Y-4.2598
X5.1361Y-3.8071
X5.1991Y-3.3386
X5.3408Y-4.3858
X5.3762Y-3.815
X5.3881Y-4.0197
X5.4747Y-2.9921
X5.5495Y-5.2756
X5.5534Y-5.0472
X5.6282Y-3.811
X5.6322Y-4.0315
X5.7896Y-5.2756
X5.9353Y-3.815
X5.9392Y-4.0551
X5.9392Y-4.3071
X6.014Y-3.3425
X6.1951Y-4.0472
X6.203Y-3.8189
X6.2936Y-2.9843
X6.2975Y-4.5
X6.4629Y-3.815
X6.5455Y-4.2795
X6.7739Y-3.7992
X6.8448Y-3.3307
X7.1243Y-2.9843
T2
X5.2829Y-4.7179
X5.2829Y-4.8179
X5.2829Y-4.9179
X5.2829Y-5.0179
X5.2829Y-5.1179
X5.2829Y-5.2179
X5.2829Y-5.3179
X6.1825Y-4.7179
X6.1825Y-4.8179
X6.1825Y-4.9179
X6.1825Y-5.0179
X6.1825Y-5.1179
X6.1825Y-5.2179
X6.1825Y-5.3179
T3
X4.157Y-2.8701
X4.157Y-3.1181
X4.157Y-3.3661
X4.7987Y-2.878
X4.7987Y-3.1181
X4.7987Y-3.3661
X4.9915Y-2.8701
X4.9915Y-3.1181
X4.9915Y-3.3661
X5.6332Y-2.878
X5.6332Y-3.1181
X5.6332Y-3.3661
X5.8248Y-2.8701
X5.8248Y-3.1181
X5.8248Y-3.3661
X6.4665Y-2.878
X6.4665Y-3.1181
X6.4665Y-3.3661
X6.6581Y-2.8701
X6.6581Y-3.1181
X6.6581Y-3.3661
X7.2999Y-2.878
X7.2999Y-3.1181
X7.2999Y-3.3661
T0
M30
